<?xml version="1.0" encoding="UTF-8"?>
<svg id="Layer_1" xmlns="http://www.w3.org/2000/svg" viewBox="0 0 1792 2304.01">
  <defs>
    <style>
      .cls-1 {
        fill: #c69d86;
      }

      .cls-2 {
        fill: #f4c0a3;
      }

      .cls-3 {
        fill: #f8fafa;
      }

      .cls-4 {
        fill: #515254;
      }

      .cls-5 {
        fill: #f3f6f9;
      }

      .cls-6 {
        fill: #eb95aa;
      }

      .cls-7 {
        fill: #3a3536;
      }

      .cls-8 {
        fill: #95979a;
      }

      .cls-9 {
        fill: #bfc1e6;
      }

      .cls-10 {
        fill: #b5b7e0;
      }

      .cls-11 {
        fill: #7472b1;
      }

      .cls-12 {
        fill: #48484a;
      }

      .cls-13 {
        fill: #72469e;
      }

      .cls-14 {
        fill: #f4755f;
      }

      .cls-15 {
        fill: #f5c0a3;
      }

      .cls-16 {
        fill: #cecced;
      }

      .cls-17 {
        fill: #c162b5;
      }

      .cls-18 {
        fill: #452f68;
      }

      .cls-19 {
        fill: #b3b4df;
      }

      .cls-20 {
        fill: #999dd0;
      }

      .cls-21 {
        fill: #5c5d60;
      }
    </style>
  </defs>
  <path class="cls-20" d="M1788,0c-.08.75.96,1.69,1,2,.22,1.83-.04,4.07,0,6-1.65,1.26-1.65,5.74,0,7,1.99,325.56.95,651.43,0,977v8c-.05,13.98.14,28.02,0,42-3.23-.91-2.97,5.09,0,4-.13,11.73.15,22.33-1,34-.14,1.45-.84,3.41-1,6-.04.65-.03,1.35,0,2,.02.33-.03.67,0,1-2.02.18-3.3-.56-4.93-1.56-21.92-13.5-44-24.67-68.1-33.91-7.73-2.96-21.4-5.66-27.9-9.1-3.13-1.66-5.63-6.92-8.54-9.46-12.33-10.74-76.58-23.04-95.16-25.84-35.74-5.38-71.93-4.42-107.86-8.14-66.36-6.88-111.52-21.88-170.99-50.01-1.96-.93-2.77-2.29-2.51,1.02-.06-.09-1.88.4-2.06-.64s.93-2.52.75-3.72c-2.11-13.5-20.3-26.56-31.99-31.84-20.58-9.29-41.43-10.63-63.7-7.8-.8-3.13-3.78-3.77-3.96-4.72-.41-2.15.39-4.59-.06-6.6-1.26-5.62-4.05-12.59-5.76-19.42-1.31-5.25-1.19-11.26-2.25-15.58-.08-.31-1.84-4.42-2.29-5.43-.98-2.22-5.2-12.97-5.67-14.94-.68-2.83.41-7.21-.02-10.32.12-.03.55-1.38,1.72-1.74,12.86-4.02,19.03-4.59,27.96-15.57.21-.26,1.07-4.34,2.32-5.69.19-.21,3.71-1.49,3.96-2.73.64-3.18-.65-7.61.07-10.58,2.35-9.75,3.76-15.05,3.98-26.69.1-5.32-.05-10.68,0-16,.16-18.01,2.2-45.73.08-62.57-.24-1.91-1.92-.95-2.16-2.87-.5-3.98.68-9.17.16-13.13-.24-1.85-1.87-1.31-2.06-2.12-.82-3.49.69-8.9-.06-12.58-.18-.87-3.74-2.59-3.91-3.46-.65-3.17.65-7.61-.06-10.58-1.99-8.26-6.43-19.14-9.64-27.01-1.36-3.32-1.63-6.6-2.63-9.43-.12-.35-3.52-2.21-3.67-2.96-.44-2.31.52-4.73-.34-7.03-.12-.32-2.92-1.88-3.37-2.57-1.57-2.39-4.28-8.38-6.37-10.93-3.61-4.4-6.65-5.04-11.63-7.09-.35-.14-.36-1.47-1.03-1.63-1.6-.4-7.94-.31-9.84-.1-.51.06-7.09,5.09-8.28,5.98-.54.41-1.91-.1-2.18.09-.11-29.75-4.89-60.28-12.49-89.01-5.27-19.94-13.86-38.87-18.05-58.95-8.51-40.83-5.32-126.74-38.96-153.04-11.77-9.2-27.03-.21-36.97,8.03-1.67,1.38-7.8,9.63-9.52,7.96,3.47-7.85,7.96-15.22,11.36-23.13,10.11-23.55,27.01-76.95.97-94.7-16.69-11.38-44.86-2.15-63.85-1.17-34.36,1.76-57.62-11.42-90.28-16.7-66.16-10.7-117.89,3.79-179.98,23.44-109.25,34.58-214.73,77.89-275.23,181.27-2.35-4.13-1.61-.77-2.33-.32-7.38,4.57-5.8,7.74-9.82,13.69-1.28,1.89-3.31,2.32-3.96,3.35-.79,1.27.2,3.14.06,3.22-.54.31-2.25-.43-3.06.64-1.16,1.55-.85,5.42-.91,7.41l-1.98-1.99c-.72,2.36-1.24,4.9-2.09,7.22-.26.7-1.73.74-1.89,1.47-.48,2.13.4,4.81.03,6.76-.22,1.18-2.73.23-3.05.55-.36.37,1.44,7.93-1.03,9.98-1.92-.8-.4-2.87-3.98-1.99.21,4.18.85,11.49-.03,15.3-.36,1.56-5.5,11.5-5.95,13.38-.85,3.52-1.08,7.91-2,12-.97,4.3-1.75,16.32-2.02,21.32-2.74-.6-2.83,2.72-3,4.49-1.08,11.16-.91,26.3,0,37.51-2.91-.57-2.14,1.56-1.98,3.45,2.52,30.28,5.6,49.31,20.46,76.57,20.91,38.36,47.43,55.88,74.03,86.97,16.34,19.09,22.24,41.96,31,64.99.56,1.48,2.1,2.74,2.35,3.77.09.38-.99,4.22-.87,7.25.01.33,0,.67,0,1-3.49-.92-1.66,4.91-2,8-.48,4.46-1.68,7.22-2,12-.48,7.28-.74,16.54,1.66,22.33,3.02,7.27,3.78,14.26,6.67,21.35,3.41,8.37,6.4,17.19,10,26,5.08,12.43,12.29,26.2,17.33,38.65,2.64,6.54,4.95,8.5,6.37,14.94.19.85,3.1,2.19,3.64,3.05,3.05,4.89,3.87,10.71,8.32,15.68-.42,4.07-.31,5.01,2.3,7.68.56.57,1.58.2,1.7.32.42.43,1.89,1.83,2,2,.19.3-.34,2.29.3,3.72.24.53,4.84,3.75,5.38,4.6.63,1,2.01,6.38,2.64,7.38,1.97,3.13,8.94,9.36,11.36,12.63.9,1.21,3.71,7.8,4.67,9.35,1.86,2.99,5.38,2.15,5.62,2.38.27.27-.23,2.44.33,3.69,1.61,3.58,11.32,5.68,14.71,10.28,6.79,9.22,10.98,23.48,16.46,34.04,10.22,19.69,26.34,41.77,40.98,58.04.93,1.03,3.04,1.64,3.35,2.16.68,1.11-.02,3.51.21,3.76.09,2.27-1.4,2.67-2.68,3.82-39.62,35.45-93.8,83.35-140.44,107.56-30.79,15.99-56.7,25.85-86.79,45.21-16.78,10.79-35.5,22.69-49.94,36.06-2.47,2.51-4.26,12.68-5.4,14.1-.42.52-9.14,5.57-11.22,7.28-70.32,57.88-120.16,172.42-144.25,258.75-14.09,50.51-22.24,102.79-35.77,153.23-17.08,63.65-44.71,123.26-70.53,183.47-39.3,91.66-59.89,191.65-67.97,291.03-1.96,24.08-.51,52.61-6.3,75.71-.47,1.86-1.97,3.16,1.29,2.78-10.23,8.71-19.34,17.42-28,27-.56.62-1.54,1.28-3,3-.3.35-.7.64-1,1-.59.71-1.87.84-2,1-11.45-9.36-6.82-28.98-4.74-42.24,12.86-82.01,36-174.69,58.03-254.97,3.49-12.7,7.51-29.94,12.21-41.79.94-2.37,6.14-6.23,1.27-8.34-5.88-2.55-7.82,3.5-9.78,7.83-9.35,20.73-15.84,53.55-21.7,76.3-17.67,68.62-34.48,140.28-46.98,210.02-2.56,14.3-11.29,43.31,2.18,53.19,2.54,1.86,7.48.96,4.51,4.99H0V0h1788ZM1073.03,253.97c4.64,3.18,14.74-9,16.46-12.98,4.17-9.67.17-28.69-3.21-38.77-1.52-4.55-5.21-15.99-11.24-10.67-5.5,4.86,1.69,7.48,3.8,11.1,2.82,4.85,4.7,24.88,4.13,30.84-1.04,10.97-6.88,9.78-9.8,15.26-.62,1.16-1.01,4.63-.15,5.22h.01ZM1237.42,322.58c-3.23-3.89-13.38-14.89-18.69-13.44-.99.27-3.38,2.55-3.56,3.5-.53,2.78,13.41,12.61,16.27,16.42,20,26.67,5.79,78.52-26.41,87.45-8.11,2.25-10.91.2-17.53.39-7.27.21-2.49,8.4,3.25,9.85,20.09,5.06,40.82-13.41,50.06-29.45,13.82-23.98,14.75-52.88-3.39-74.72h0ZM1183.59,321.41c-3.38-2.65-14.72-10-14.7-.9,0,3.85,7.29,6.33,10.11,9.27,9.36,9.8,11.48,21.55,4.8,33.52-1.91,3.42-8.77,8.83-5.91,12.27,6.76,8.12,17.22-12.62,18.42-17.76,3.08-13.23-2.1-28.07-12.72-36.41h0ZM385,387c-.19-.19-4.45-.14-5.37.16-1.34.43-1.4,2.33-2.31,2.9-1.49.92-3.83.69-5.85,1.91-17.92,10.81-31.2,65.57-32.46,85.54-.46,7.36-.35,60.12,5.65,61.53,12.23,2.88,5.19-10.86,4.46-17.66-4.52-41.99,2.52-89.22,28.49-123.28,1.65-2.16,9.41-9.04,7.4-11.1h0ZM1176.86,412.14c-.51-.81-6.97-1.71-7.75-1.02-2.51,2.21-2.43,19.37-2.09,23.36.67,8.06,5.9,28.18,9.68,35.25,1.59,2.99,5.52,2.49,8.16,1.11,2.27-3.6-4.5-18.92-5.58-23.62-1.57-6.84-3.2-17.88-3.31-24.77-.04-2.65,2.14-8.3.89-10.31h0ZM1588.8,538.3c-59.06,4.2-179.62,47.75-215.76,96.24-6.55,8.79-8.12,10.8-.57,20.48,19.07,24.45,43.73,11.34,66.31,4.26,36.99-11.6,70.7-15.82,108.42-22.58,35.75-6.4,122.79-15.14,103.83-71.25-9.07-26.84-38.16-28.88-62.24-27.16h.01ZM126.35,742.65c14.95,13.85,67.25,14.85,88.14,16.36,22.7,1.64,45.29,2.98,67.97,4.03,19.21-2.14,41.19,2.91,59.91.83,15.48-1.72,18.49-17.9,6.68-26.43-29.13-1.15-55.11-15.72-82.54-24.46-32.92-10.5-106.26-31.67-135.85-10.82-13.91,9.8-17.59,28.18-4.31,40.48h0ZM1549.45,785.44c18.34-17.11,8.79-43.99-14.24-50.15-37.52-10.03-108.51,15.51-140.14,37.28-4.55,3.14-18.9,16.78-22.11,17.89-4.23,1.46-11.05-.63-10.84,7.07.16,6.19,11.08,14.34,16.2,16.66,18.06,8.17,58.95-5.18,79.45-8.91,24.06-4.38,50.98-6.25,74.27-11.73,6.89-1.62,12.16-3.19,17.41-8.09v-.02ZM315.41,979.45c5.41-4.97,11.46-10.87,17.11-15.42,3.1-2.49,18.12-11.95,18.73-13.26,3.3-7.04-3.74-14.79-9.32-18.2-14.38-8.79-31.54-.64-45.61,5.26-24.57,10.31-79.49,38.4-95.32,58.68-28.4,36.38,8.62,72.6,46.38,55.38,12.99-5.93,24.69-26.79,34.11-37.89,9.92-11.69,22.64-24.18,33.92-34.54h0ZM384.37,1110.62c31.88,21.74,47.85-31.69,61.22-49.53,4.07-5.44,8.99-10.42,13.89-15.11,9.15-8.76,14.6-6.73,9.3-22.25-2.88-8.43-13.14-20.45-23.02-18.54-2.72.53-18.73,9.87-22.06,12.01-14.24,9.18-47.02,38.89-52.71,54.29-4.96,13.41,1.65,31.14,13.38,39.14h0ZM170.81,1689.79c13.3-29.57,30.12-57.44,41.67-87.82,12.17-32.02,24.82-75.28,26.57-109.43.3-5.8.84-12.14-7.4-9.4-2.8.93-1.37,7.52-1.65,10.35-6.41,65.93-28.18,110.14-55.84,168.16-1.99,4.18-10.81,22.6-10,25.63.68,2.57,4.31,3.37,6.66,2.51h-.01Z"/>
  <path class="cls-15" d="M693,2177c23.79,3.89,75.83,20.1,98,30,32.85,14.67,35.82,60.12,37.76,91.83.12,1.95-.05,3.37-.76,5.17H40l-.03-1.32c-3.16-2-4.49-4.96-3.97-8.68,8.66-9.58,17.77-18.29,28-27,82.8-70.46,153.37-72.97,258.54-68.04,47.07,2.21,94.54,6.72,141.46,12.04,18.99,2.15,38.67,4.24,57.49,7.01,21.04,3.09,42.03,5.49,63,8,9.57,1.15,22.06,4.38,31.51,3.99l33.51,6.02c3.98-.65,2.65-5.86,3.56-8.26.36-.96.97-.82,1.93-3.76,3.29-10.1,6.73-22.64,11-32,.2-.45,3.9-3.13,6-7,.33-.61,10.08-8.28,10.94-8.55,3.98-1.25,6.44-.04,10.06.55Z"/>
  <path class="cls-15" d="M1662,2050c.09.06-.4,1.74.65,2.01,7.35,1.93,7.37-2.92,12.08-3.78,5.16-.93,9.12-.98,14.81-2.19,5.27-1.12,13.28-1.01,17.77-2.07.81-.19.27-1.81,2.12-2.06,16.26-2.13,42.26.95,57.02,4.13,1.86.4,3.38,1.7,5.1,1.9,4.01.46,8.39-.2,12.45.05.12,1.76-.34,3.75.04,5.46,3.49,15.71,2.67,41.53,2.95,58.55.77,46.76-.16,93.97-.04,140.46.04,15.55-.27,31.06,1.05,46.54l3.99-2.99v8h-277c.56-3.02-1.53-1.94-3.45-2-7.74-.26-16.37-.31-24.09,0-1.93.08-4.01-1.03-3.45,2h-5c-4.46-8.07-10.86-14.76-17.58-20.97-1.05-.97-1.29-2.93-1.42-3.03-.15-3.75,4.51-3.54,5.68-4.33,8.28-5.52,17.69-10.26,27.16-15.58.59-.33,2.01.1,2.84-.42s2.21-3.46,3.04-3.64c1.37-.29,5.04.22,5.28-.03.34-.35-.4-3.64,0-4.01.21-.19,2.43.26,3.71-.3.46-.2,1.86-2.88,2.6-3.38.86-.57,2.5-.08,3.36-.65.74-.5,2.14-3.18,2.6-3.38,1.28-.56,3.51-.1,3.71-.3.4-.37-.35-3.67,0-4.01s3.64.4,4.01,0c.19-.21-.26-2.43.3-3.71.2-.46,2.88-1.86,3.38-2.6,1.06-1.59,3.07-4.49,4-6,.51-.82,4.18-7.91,4.29-8.39.27-1.08.45-10.92.04-11.3-.38-.35-3.63.4-4.01,0-.24-.26.7-4.28-2.83-5.93-.82-.38-2.78.25-3.13-.11-.25-.25.37-4.83-2.86-5.9-.96-.32-2.91.18-3.17-.07-.41-.38.39-3.61-.01-4-.21-.2-2.44.27-3.72-.3-.58-.26-5.38-6.4-6.59-7.38-6.34-5.18-15.03-11.47-21.37-16.64-1.22-1-5.99-7.12-6.59-7.39-1.25-.56-3.41-.06-3.69-.33-.25-.25.37-4.83-2.86-5.9-.96-.32-2.91.18-3.17-.07-.41-.38.39-3.61-.01-3.99-.26-.24-4.28.7-5.93-2.83-.38-.83.25-2.78-.1-3.14-.27-.27-2.43.22-3.68-.34-.46-.21-1.85-2.89-2.6-3.38-.87-.58-2.59-.07-3.37-.65-1.22-.9-2.01-3.67-4.25-3.73l1.93-2.95c59.79-25.52,128.01-62.01,191-78,.21,1.72,2.36,1.24,3,0,.19-.05.79-.76,2-1,1.52-.3,3.55.34,5.25-.04,1.2-.27,3.4-6.14,6.75-3.96v.05Z"/>
  <path class="cls-3" d="M1313,2190c2.51.09,5.7-.63,8,.54,35.24,33.94,78.72,71.57,126.22,86.74,2.54.81,12.11,2.14,12.78,2.72.13.11.36,2.06,1.42,3.03,6.72,6.2,13.12,12.89,17.58,20.97h-651c.71-1.81.88-3.23.76-5.17-1.95-31.71-4.91-77.16-37.76-91.83.42-.17.9-.57,1-1h7c66.68,0,133.44.35,200-1,2.99-.04,6.01.06,9,0s6.18-.92,8-1c.66-.03,1.33.02,2,0,17.95-.61,36.04-.52,54-1,1-.03,2,.03,3,0,5.41-.15,10.63-.87,16-1,.67-.02,1.33.02,2,0,2.48-.07,17.4-.67,18.01,0,.75.82-2.68,5.02,5.55,4.85,2.52-.05,5.73-3.44,6.44-5.84h2c.14,1.5,2.86,1.5,3,0,7.48,0,14.65-.72,22-1,2.32-.09,4.68.09,7,0,1-.04,2,.04,3,0,2.65-.1,5.35.12,8,0,38.34-1.75,76.66-5.73,115-8,3.2-.19,7.64.96,10-1,6.81-.33,13.07-1.26,20-1h0Z"/>
  <path class="cls-5" d="M1792,2v2294l-3.99,2.99c-1.32-15.47-1.01-30.98-1.05-46.54-.12-46.49.81-93.7.04-140.46v-68c1.67-1.54,1.68-6.42,0-8v-4c0-13.32-.01-26.68,0-40,1.67-1.54,1.68-6.42,0-8,0-2.66-.02-5.34,0-8,1.78-1.66.98-5.5,1-8,.16-21.3.18-42.7,0-64-.02-2.5.78-6.34-1-8-.02-2.66,0-5.34,0-8,1.7-3.56,1.67-10.65,0-14,.04-1.66-.03-3.33,0-5,0-.26.96-2.7,1-5,.04-2.66-.03-5.34,0-8s-.03-5.34,0-8-.02-5.34,0-8-.01-5.34,0-8,0-5.34,0-8c0-.7-1-.93-1-1v-2c0-.26,1.01-2.58,1-5-.02-2.66.02-5.34,0-8s.02-5.34,0-8c-.03-4.94-.97-9.25-1-14v-14c-.03-4.66.03-9.34,0-14v-8c-.04-8.99,0-18.01,0-27,1.66-1.04,1-3.79,1.02-5.49.08-7.99.1-16.03,0-24.03-.02-1.69.64-4.45-1.02-5.49v-31c1.69-4.26,1.66-11.95,0-16-.02-3.99.02-8.01,0-12,1.7-3.56,1.67-10.65,0-14v-7c1.84-7.07.99-15.58,1-23,0-7.98,1.44-26.51,0-33-.06-.26-.77-.65-1-1-.19-1.69-.14-4.27,0-6,0-.07.98-.29,1-1,.07-2.64.07-5.36,0-8-.02-.71-1-.93-1-1-.03-2.66.04-5.34,0-8v-1c.03-3.32-.04-6.68,0-10,0-.21.98-1.67,1-4,.03-2.66-.02-5.34,0-8,.57-73.4.93-147.11.02-220.51-.02-1.69.64-4.45-1.02-5.49v-126c1.67-1.54,1.68-6.42,0-8v-5c1.84-2.64.98-7.54,1-11,.05-11.31.13-22.69,0-34-.01-1,.04-2,0-3-.01-.33.03-.67,0-1-.08-.86-.03-1.69-1-2-.03-.65-.04-1.35,0-2,3.01,1.08,2.69-4.24,1-6,1.15-11.67.87-22.27,1-34,.02-1.33-.01-2.67,0-4,.14-13.98-.05-28.02,0-42v-8c.95-325.57,1.99-651.44,0-977-.01-2.33.05-4.67,0-7-.04-1.93.22-4.17,0-6h3v.02Z"/>
  <path class="cls-9" d="M25,2304c2.96-4.04-1.97-3.13-4.51-4.99-13.46-9.88-4.74-38.89-2.18-53.19,12.5-69.75,29.3-141.41,46.98-210.02,5.86-22.75,12.35-55.57,21.7-76.3,1.95-4.33,3.9-10.38,9.78-7.83,4.87,2.11-.33,5.96-1.27,8.34-4.7,11.85-8.73,29.08-12.21,41.79-22.03,80.28-45.17,172.97-58.03,254.97-2.08,13.26-6.7,32.88,4.74,42.24-1,1.25-1.68,3.4-2,5h-3Z"/>
  <path class="cls-5" d="M36,2294c-.53,3.73.81,6.69,3.97,8.68l.03,1.32h-12c.32-1.6,1-3.75,2-5,.13-.16,1.41-.29,2-1l1-1c1.46-1.72,2.44-2.38,3-3Z"/>
  <path class="cls-3" d="M1484,2304c-.56-3.03,1.53-1.92,3.45-2,7.72-.31,16.35-.26,24.09,0,1.93.06,4.01-1.02,3.45,2h-31,.01Z"/>
  <path class="cls-16" d="M1788,0h4v2h-3c-.04-.31-1.08-1.25-1-2Z"/>
  <path class="cls-12" d="M684,1088c.1.11,1.86-.22,2.91.59,2.16,1.67,6.02,5.51,8.09,7.41.19,2.06,0,4.01-.46,6.03-14.98,67.37-15.02,137.75-11.55,206.48,2.7,53.57,8.15,137.66,42.01,180.49,2.61,3.3,4.76,11.12,10.83,7.81,3.12-36.86,12.3-72.93,24.17-107.81,3.86.55,4.49-3.45,6.98-5.52,24.73-20.66,36.22-5.95,59.64,5.41,11.64,5.65,36.3,16.7,48.39,17.11,1.5.05,3.16,1.79,5,3,.95.63,6.95,6.74,8,2.48.53-2.15-6.3-8.86-7-13.48-.17-1.14-.25-6.23,0-7,.05-.15,1.67-.98,2.21-2.24,3.76-8.75,7.75-18.19,14.79-24.76.26.26,2.74-.66,3.07.54.94,3.43-.95,8.34-1.07,11.46-.53,14.03-.13,39.16,4.81,51.69,3.82,9.68,24.61,40.75,25.19,44.31,2.72,16.67,11.22,33.61,17.47,50.03,20.73,54.37,39.84,101.66,52.78,159.22,11.27,50.13,24.85,107.81,28.75,158.75,6.18,80.88,42.34,192.16,76.3,266.23.7,1.52,1.47,4.22,3.7,3.77.03.66,0,1.33,0,2v6c-.04,21.46-1.65,43.71-1.04,65.54.08,2.92,2.82,16.54.04,17.46l-23.5-2.08c-21.09,3.45-41.87,2.25-63.05,3.08-1.93.08-4.01-1.03-3.45,2-.67.02-1.34-.03-2,0l-.51-2.01c-2.83,1.86-8.37-.54-7.49,3.01-2.99.06-6.01-.04-9,0l5.5-2c-17.01.13-34.03-.14-51.04-.04-14.84.09-30.19.99-44.92,1.08-38.65.25-77.31-.23-115.95-.09-1.16.19-.44,1.41-.59,2.05-.1.43-.58.83-1,1-22.17-9.9-74.21-26.11-98-30l-15.48-33.02c-18.08-44.59-32.81-90.62-50.76-135.24-6.57-16.34-10.65-33.11-28.06-40.94-33.05-14.86-56.68,9.68-72.52,35.89-33.03,54.67-56.68,140.19-60.18,203.86-.11,1.92,1.06,4.01-2,3.46-46.92-5.32-94.39-9.84-141.46-12.04-105.17-4.93-175.74-2.42-258.54,68.04-3.26.38-1.75-.92-1.29-2.78,5.79-23.1,4.34-51.63,6.3-75.71,8.08-99.38,28.68-199.37,67.97-291.03,25.81-60.21,53.44-119.82,70.53-183.47,13.54-50.44,21.68-102.71,35.77-153.23,24.09-86.34,73.93-200.88,144.25-258.75,2.08-1.71,10.8-6.76,11.22-7.28,1.14-1.42,2.93-11.59,5.4-14.1,14.44-13.37,33.16-25.27,49.94-36.06,30.09-19.36,56-29.22,86.79-45.21,46.64-24.21,100.82-72.11,140.44-107.56,1.28-1.15,2.78-1.55,2.68-3.82h0ZM613,1966.99c-31.65-97.39-63.18-194.84-92.49-293-34.49-115.5-66.61-231.73-99.22-347.78-1.94-9.11-12.58-7.73-10.04,2.04,59.49,211.67,119.21,423.35,189.28,631.72,2.79,6.66,5.09,7.82,12.47,7.02ZM922.65,2020.65c5.94-6.1,30.87-31.28,32.12-37.38.47-2.29.42-5.45.26-7.81-1.12-16.69-10.73-44.62-14.57-62.42-6.82-31.67-13.79-63.99-19.17-95.83-2.31-13.69-8.69-45.41-6.28-57.69.45-2.27,2.71-2.94,3.02-5.06.21-1.49-.86-6.25-2-7.03-1.48-1.01-30.82,5.02-35.24,5.86-51.29,9.82-102.35,21.13-153.53,31.47-36.8,7.43-76.7,12.73-112.9,22.1-4.27,1.11-10.59,2.03-10.14,7.36.51,6.07,4.93,17.73,6.48,24.56,12.85,56.54,26.07,111.28,46.25,165.75,3.82,10.32,4.3,9.27,6.06,20.94,3.89,25.85,15.72,28.58,38.22,35.78,35,11.2,79.23,21.74,115.54,27.46,6,.95,19.4,3.68,24.59,3.23,1.9-.17,3.52-1.02,5.13-1.96,6.54-3.84,17.26-14.11,23.52-19.48,18.12-15.54,35.95-32.74,52.64-49.87v.02ZM332.75,1775.27c-15.54-4.76-3.15,16.29.08,22.41,37.06,69.99,122.41,128.82,199.96,143.04,3.44.63,12.96,2.53,15.72,2.33,3.16-.22,5.08-7.92,1.43-9.49-44.91-5.96-87.01-23.98-123.86-49.14-40.07-27.35-73.8-64.36-93.34-109.15h.01ZM399.31,1827.3c-1.57,1.93-2.05,5.12.17,6.73,29.29,20.64,56.23,48.57,92.32,56.68,7.32,1.65,22.74,4.25,29.77,3.35,5.08-.65,5.05-7.86,2.48-9.6-1.72-1.16-17.85-1.11-21.41-1.58-39.28-5.11-67.7-35.85-98.68-57.43-1.09-.74-3.92.97-4.63,1.85h-.02Z"/>
  <path class="cls-12" d="M1787,1089c.03.35-.08.73,0,1,.14.48.54.83,1,1,.04,1-.01,2,0,3l-2,3.45c.66,151.12-1.33,302.73,1,453.55.03.26.74.69,1,1,1.44,6.49,0,25.02,0,33-1.84,7.08-.99,15.58-1,23v7c0,4.66-.02,9.34,0,14,.02,3.99-.02,8.01,0,12,.03,5.32,0,10.68,0,16v3l-22.58,40.92c-15.45,25.06-35.57,48.58-62.74,61.26-2.98,1.39-16,5.26-16.57,5.92-.37.43-.48,7.34.48,8.01,4.45,3.12,18-3.87,22.77-6.26,29.03-14.53,53.46-42.89,69.03-70.97,2.67-4.83,4.39-13.53,9.62-15.88v40c0,8.99-.04,18.01,0,27v8c.03,4.66-.03,9.34,0,14v14c.03,4.75.97,9.06,1,14-1.68,1.58-1.67,6.46,0,8,.02,2.66-.02,5.34,0,8-1.62.85-.94,3.4-1,5v2l1,1c0,2.66.01,5.34,0,8-1.68,1.58-1.67,6.46,0,8-.02,2.66.03,5.34,0,8-1.68,1.58-1.67,6.46,0,8-.03,2.66.04,5.34,0,8-1.62.85-.94,3.4-1,5-.03,1.67.04,3.34,0,5-.11,4.65-.01,9.35,0,14,0,2.66-.02,5.34,0,8,.02,2.5-.78,6.34,1,8,.18,21.3.16,42.7,0,64-1.78,1.66-.98,5.49-1,8-.02,2.66,0,5.34,0,8v8c-.01,13.32,0,26.68,0,40v16c-3.08-2.01-7.39-1.25-10.28-2.05-20.13-5.54-44.87-7.82-67.25-5.99-7.87.64-26,3.93-32.25,5.94-4.2,1.35-11.39,1.68-14.21,3.1,10.8-20.5,19.61-42.32,25.72-64.78,11.93-43.87,15.91-96.51,10.28-141.71-1.44-11.58-3.02-9.73-8.81-18.19-83.54-122.21-93.3-292.93-85.19-436.82,5.27-93.66,22.9-215.45,67.19-298.81,1.95-3.68,10.09-12.3,4.6-15.46-6.61-3.8-12.58,9.54-14.97,14.09-46.57,88.83-64.31,225.6-67.83,325.17-5.03,142.35,7.78,306.9,94.26,424.76,9.67,73.99-1.7,151.53-38.25,216.75-1.21.24-1.81.95-2,1-.86.2-2.16-.21-3,0-62.99,15.99-131.21,52.48-191,78-39.38,16.8-80.09,33.09-119.97,49.53-3.48,1.43-9.25,5.27-12,6-3.17.85-6.57-.45-9.04,1.46-6.93-.26-13.19.67-20,1-3.19.15-7.64-.93-10,1-38.34,2.27-76.66,6.25-115,8-1.54-1.67-6.42-1.68-8,0-1,.04-2-.04-3,0-.28-7.48.37-15.06.04-22.54-9.23-209.97-22.31-419.68-25-630-.57-44.91-3.09-90.99-1.08-136,.59-13.16,2.24-30.25,6.37-42.63,3.18-9.56,9.78-19.07,11.68-28.83,2.58-.27,1.59,0,2.03,1.46,2.49,8.44,6.98,26.75,5.88,34.96-.54,4.08-7.4,15.47-1.4,16.6,7.71,1.46,6.64-8.71,7.48-14.02.65-4.1,1.76-4.74,3-9,3.14,5.33,4.79-.43,6.35-1.65,17.49-13.71,38.95-27.75,58.35-39.15,18.99-11.16,46.84-27.83,69.54-19.94,1.89.66,2.97,3.37,5.76,2.74,3.4,4.4,7.23,8.43,10.41,13.09,13.26,19.39,22.49,40.06,33.07,60.92,2.62,2.37,6.82,1.01,7.49-2.54,1.33-7.08,1.77-19.4,2.07-26.93,5.06-129.82-5.63-260.79-50.51-382.57-.57-1.54-.61-3.34-2.53-3.97-.27-2.31-4.26-16.92-5-18-.25-3.3.55-1.94,2.51-1.02,59.47,28.13,104.63,43.13,170.99,50.01,35.93,3.72,72.12,2.77,107.86,8.14,18.58,2.8,82.83,15.1,95.16,25.84,2.92,2.54,5.41,7.8,8.54,9.46,6.51,3.44,20.17,6.14,27.9,9.1,24.1,9.23,46.17,20.41,68.1,33.91,1.63,1,2.91,1.75,4.93,1.56h0ZM1697.65,1737.65c19.52-19.35,38.82-45.09,50.53-69.97,2.74-5.82,11.77-25.96,10.81-31.13-.57-3.05-3.46-4.38-6.32-3.4-3.38,1.15-7.88,18.27-9.66,22.38-10.45,24.19-23.32,42.76-40.5,62.5-3.84,4.41-19.22,18.71-20.77,22.26-2.13,4.89,3.4,8.36,7.56,5.77,1.86-3.91,5.65-5.73,8.35-8.4h0ZM1573,1649c-24.5.08-49.03-.07-73.55-.04-28.81.04-57.92.93-86.91,1.09-45.62.25-96.2-2.99-141.09-.09-6.06.39-18.72.68-16.51,9.38.42,1.65,4.64.62,4.12,3.12-3.05,62.63-2.49,125.91-.08,188.05.72,18.46-3.41,30.93,11.54,44.46,22.41,20.28,101.45,71.77,129.26,79.74,12.14,3.48,20.12-.62,31.48-4.95,33.89-12.91,73.75-35.28,105.4-53.6,10.73-6.21,25.23-13.08,29.54-25.46s2.18-27.64,1.78-41.2c-1.5-51.41-2.03-103.59,1.02-155,.9-15.15,2.95-30.38,3.99-45.51h0ZM1648.86,2003.15c-3.28-5.34-22.67,6.94-25.87,10.34l-60.06,57.97c-2.5,4.25,2.66,10.14,6.57,5.53,23.73-18.71,46.19-50.15,71.84-65.16,1.91-1.12,7.29-2.64,7.55-2.94.35-.41.36-5.11-.02-5.74h0Z"/>
  <path class="cls-4" d="M444,366c60.5-103.38,165.98-146.68,275.23-181.27,62.09-19.65,113.82-34.14,179.98-23.44,32.66,5.28,55.92,18.46,90.28,16.7,18.99-.97,47.15-10.2,63.85,1.17,26.04,17.75,9.14,71.15-.97,94.7-3.4,7.91-7.89,15.28-11.36,23.13,1.72,1.67,7.86-6.58,9.52-7.96,9.94-8.23,25.2-17.23,36.97-8.03,33.64,26.3,30.45,112.21,38.96,153.04,4.18,20.08,12.78,39.01,18.05,58.95,7.6,28.73,12.39,59.26,12.49,89.01-1.38.98-9.96,16.6-11.18,19.32-11.13,24.75-14.15,52.4-16.95,79.05-.25,2.4-.45,7.44-2.87,8.63-3.55-15.66-9.66-30.64-14-46-2.94-10.42-4.25-21.61-7.49-32.01-.59-1.91-2.72-8.93-3.51-9.99,5.11-1.4,13.14,3.17,13.06-5.51-.05-5.53-3.45-7.59-8.57-7.58-4.56,0-8.99,3.34-11.49-1.92-2.16-4.54-3.66-12.7-6.14-18.36-6.44-14.67-22.01-40.58-33.85-51.15-11.07-9.89-23.41-13.09-35.04-25.96-11.37-12.59-37.37-55.27-40.97-70.53-.71-3-1.69-13.76-1.05-16.33.06-.24,3.81-2.6,4.05-2.67,1.93-.55,10.97-.73,11.86-2.14.62-.97.41-6.59-.8-7.43-2.76-1.92-15.89,1.2-19.07,3.56-25.01,2.05-80.75,47.08-101.48,64.02-52.82,43.18-102.58,92.82-152.54,139.46-16.86,15.74-33.53,34.29-51.51,48.49-6.01,4.74-12.75,8.05-18.47,13.03-.33.04-.67-.04-1,0-36.65,4.42-100.04,1.87-120-36-1.05-2-.95-6.65-4-6-.09-.3.09-.69,0-1-.44-1.54-1.73-8.63-2.07-8.94-.39-.37-2.9.1-3.91-.06-2.51,14.47-2.77,29.76-2.06,44.54,1.45,30.23,10.11,58.8,13.96,88.04.34,2.57.77,7.26-.92,9.42-13.39-63.78-44.02-76.45-81.51-120.99-20.02-23.77-35.84-54.31-41.49-85.01-8.9-48.46-.04-97.14,18.78-140.7,5.41-12.51,12.46-25.75,19.22-37.3v.02ZM948.82,236.81c1.19-.68,2.63-5.45,2.05-7.15-1.22-3.59-28.71-12.88-33.67-14.37-139.73-41.83-321.11,42.58-382.92,173.49-28.7,60.79-30.35,132.46,23.7,179.72,26.64,23.29,80.82,45.62,114.03,26.01,3.88-2.29,10.21-5.09,5.03-10.06-3.72-3.57-7.92,1.4-12.06,3.02-35.6,13.92-84.48-8.32-109.01-34.95-59.02-64.09-26.06-156.32,23.05-215,78.57-93.87,224.46-149.44,343.93-109.99,7.19,2.37,16.22,7.35,22.84,9.21,1.01.28,2.02.64,3.03.06h0ZM795.37,363.33c-2.68,4.59-.5,7.58,3.99,9.59,28.25-25.71,59.63-49.88,96.68-61.38,16.36-5.08,38.33-8.78,55.37-6.45,5.62.77,12.72,8.36,16.65,2.46,2.52-3.78-4.1-8.34-7.35-9.76-16.64-7.29-50.86-1.3-68.25,4.18-29.34,9.24-62.46,30.23-85.48,50.52-1.73,1.53-11.02,9.82-11.62,10.85h0ZM1032.35,439.65c-26.4-25.08-24.66-68.4-13.37-100.17,1.38-3.89,5.53-8.28,3.09-12.03-6.11-9.39-12.95,10.13-14.52,14.6-8.69,24.67-9.18,55.71.97,79.94,10.01,23.88,34.41,43.36,61.35,41.15,7.06,21.45,16.1,43.81,26.62,63.88,3.22,6.14,6.56,15.55,13.3,6.35-11.17-26.77-24.66-52.87-34.29-80.38-1.69-2.14-5.98.56-8.82.65-10.83.32-26.54-6.58-34.33-13.98h0Z"/>
  <path class="cls-15" d="M1101,601c.8,1.06,2.92,8.08,3.51,9.99,3.24,10.4,4.54,21.6,7.49,32.01l-6.01,1c3.11,11.85,6.91,23.79,9.56,35.94,13.7,62.69,17.85,144.79,12.43,208.55-.82,9.62-3.16,19.2-3.84,28.84.92,2.77,6.86,3.47,8.61,1.42,2.78-3.25,2.85-25.89,3.25-31.23,3.19-42.37,4.13-91.16-.01-133.51l3-1c2.16,16.74,10.14,33.77,12.72,50.78,1.36,8.94,1.55,18.21,2.28,27.22,3.63,45.19,7.52,92.89-2.25,136.25-1.4,6.21-3.31,15.08-5.75,20.75-3.1,7.2-9.19,18.44-13,26,.36-3.14-2.21-10.91-6.02-8.53l-23.59,33.42c-24.69,27.83-49.37,57.68-80.16,79.07-4.04,2.8-24.83,14.09-25.74,16.06-2.99,6.46,3.99,6.21,8.5,4.47,28.31-10.91,71.85-55.65,91.42-79.58,3.57-4.36,9.62-14.73,13.12-17.9,1.59-1.44,2.51-.66,3.47-1.01.78-1.81.63-6.45,4-6-1.66,3.36-.06,4.58-4,6-5.18,12.02-19.35,29.92-28.03,40.47-24.92,30.31-56.18,54.28-88.08,76.92-44.8,31.79-92.82,32.23-145.89,24.61-11.76-1.69-24.53-4.85-36-8-2.63-.72-2.01-1.84-2.68-1.99-1.61-.36-3.23.35-5.07-.3-.37-.13-2.18-3.5-2.97-3.67-10.94-2.35-19.74-6.07-30.12-11.94-8.71-4.92-20.45-10.83-28.84-16.42-.74-.5-2.14-3.18-2.6-3.38-1.28-.56-3.51-.11-3.71-.3-.4-.38.39-3.62-.01-4-.27-.25-2.23.26-3.18-.06-1.17-.4-2.18-2.99-3.13-3.62-.88-.58-2.6-.07-3.37-.65-1.24-.94-5.95-7.1-6.59-7.38-1.28-.56-3.51-.1-3.72-.3-.4-.38.39-3.62-.01-4-.27-.25-2.23.26-3.18-.06-1.17-.4-2.18-2.99-3.13-3.62-8.16-5.4-11.39-9.64-18.68-16.33-2.07-1.9-5.93-5.74-8.09-7.41-1.04-.81-2.81-.48-2.91-.59-.24-.26.47-2.65-.21-3.76-.32-.52-2.42-1.13-3.35-2.16-14.63-16.27-30.76-38.36-40.98-58.04-5.48-10.56-9.67-24.81-16.46-34.04.11-5.13-3.54-9.43-5.48-14.02-18.22-43.09-34.77-86.72-52.52-129.98,37.94,43.03,99.02,49.15,147.67,20.17,42.52-25.33,62.59-71.72,55.21-120.55-2.03-13.42-11.74-27.98-.9-40.14,2.37-2.66,12.28-8.65,15.76-9.24,4.15-.71,18.25-1.01,21.01,2.01,1.21,1.33,6.91,23.25,8.77,27.74,3.26,7.86,8.41,14.69,12.48,22.02-2.28-2.23-5.3-3.96-7.55-6.41-7.25-7.89-21.3-27.26-29.52-32-11.07-6.38-13.46,10.63-13.96,17.87-1.68,24.35,2.2,98.32,10,120.08,6.26,17.46,18.18,28.54,36.93,18.85,10.41-5.38,15.72-21.73,25.09-23.92,7.08-1.66,17.18-.2,25.29-1.71,13.71-2.55,41.33-13.44,35.96-31.49-.76-2.57-7.36-12.93-9.22-15.28,2.58-.73,6.68-.19,9.49,0,77.52,5.48,146.74-61.2,123.99-140.98-1.53-5.35-9.08-18.85-6.99-23.03l32.46-23.54,2.17-5.33c12.68-.87,25.49-1.95,38.18-1.89,1.19.23,2.97.8,3.7,1.77h-.02ZM928,993c10.13-4.9,17.11-8.33,26.32-15.18,21.35-15.89,46.28-38.83,48.68-66.82-37.33,8.73-71.95,26.38-107.75,39.75-42.3,15.79-86.6,24.91-130.25,36.26-1.97,2.3,7.29,9.07,9.09,10.4,12.66,9.4,31.81,14.3,47.43,15.57,5.76.47,13.13-.84,18.48.02.39.06,1.37,1.99,4.36,1.94,27.99-.52,59.14-10.08,83.64-21.94h0ZM949.99,1017.01c-.5-.54-10.4,6.63-11.98,7.51-17.11,9.54-44.43,18.49-63.57,23.43-4.66,1.2-10.14,1.24-14.46,2.57-.91.28-2.74.39-1.98,1.98.67,1.38,20.01,9.59,22.76,10.24,32.88,7.84,62.75-13.74,69.23-45.73Z"/>
  <path class="cls-8" d="M1204,908c22.27-2.82,43.12-1.49,63.7,7.8,11.69,5.28,29.89,18.34,31.99,31.84.19,1.2-.92,2.71-.75,3.72s2,.55,2.06.64c.74,1.08,4.73,15.69,5,18,.01.11-.93.73-.85,1.45.39,3.69,3.96,12.11,3.91,12.99-.04.55-1.95.48-2.1,1.2-.6,2.81,6.94,23.85,8.2,28.7,27.41,105.67,39.63,216.77,33.88,327.2-.23,4.35-1.82,8.82-1.05,13.45-3.13,3.16-9.29-10.92-10.18-12.31-1.69-2.64-14.09-19.47-12.82-20.68,8.62.44,4.04-5.68,1.63-10.13-13.66-25.15-46.88-64.59-69.24-81.71-13.58-10.39-38.31-26.44-55.94-24.23-.29.04-4.8,2.78-4.99,3-2.41,2.81,3.4,5.36,4.09,7.09s-.76,3.07-.61,4.32c.09.78,2.82,1.12,3.64,3.59,1.85,5.59-2.8,8.64,5.42,8.56-4.79,5.44-3.07,12.74-5.74,19.3-.61,1.5.6,2.72-2.24,2.2-1.32-5.11,4.14-15.95,2.68-19.73-.08-.2-2.93-3.16-3.69-2.26-.31.37.89,2.39.8,3.48-.66,8.88-2.25,20.02-4.05,28.76-2.38,11.52-6.98,22.32-9.77,33.74-1.25.58-1.12-4.23-2.98-1.99-.5.6,1.03,4.05.99,5.48-.23,9.31-8.61,24.19-11.71,33.3-3.82,11.21-7.16,24.23-10.2,34.97-.75,2.63-2.33,6.9-.08,9.24-.84,5.31.23,15.48-7.48,14.02-6-1.14.85-12.52,1.4-16.6,1.09-8.2-3.39-26.51-5.88-34.96-.43-1.46.56-1.74-2.03-1.46-1.9,9.76-8.49,19.27-11.68,28.83-4.12,12.38-5.78,29.47-6.37,42.63-2.01,45.01.51,91.09,1.08,136,2.69,210.32,15.77,420.03,25,630,.33,7.48-.32,15.06-.04,22.54-2.32.09-4.68-.09-7,0-1.3-8.7-2.46-17.73-2.99-26.51-1.31-21.95-1.01-44.07-1.97-66.03-9.84-224.56-25.3-449.17-22-673.92.4-27.06-1.88-49.41,8.77-75.23,6.68-16.2,15.63-20.43,8.48-40.09-1.19-3.28-3.8-6.02-4.28-7.22-.3-.75-1.1-6.98-1-8,.49-4.85,15.06-14.76,18.9-18.6,7.9-7.91,12.9-21.62,16.87-32.13,9.71-25.71,15.82-53.07,29.23-77.27.57-.49,3.61-3.05,3.71-3.27.57-1.28.1-3.51.29-3.72.38-.4,3.62.39,4-.01.2-.21-.27-2.44.3-3.72.26-.6,7.23-6.06,7.41-6.52.67-1.76.04-5.51.29-5.76.34-.34,3.68.35,4.02.01.27-.27-.28-3.95,0-5.31.07-.35,2.46-1.52,3.2-3.94,1.88-6.12,2.81-10.79,5.12-16.43.37-.91,3.54-6.57,3.64-7.01.94-3.91-.92-10.81,0-14.61.29-1.18,3.14-1.13,3.84-3.38,1.08-3.49-.62-9.12.2-12.63.19-.81,1.81-.27,2.06-2.12,1.81-13.82,2.3-29.98,1.92-44.57s-1.49-30.24-4.29-44.21c-2.76-13.74-8.47-27.02-19.71-35.79-1.75-18.42-7.57-36.61-12-54h-.01Z"/>
  <path class="cls-6" d="M1184,831c.43,3.1-.66,7.48.02,10.32.47,1.97,4.69,12.72,5.67,14.94.44,1,2.21,5.12,2.29,5.43,1.06,4.31.94,10.33,2.25,15.58,1.71,6.83,4.5,13.8,5.76,19.42.45,2.01-.35,4.45.06,6.6.18.95,3.16,1.59,3.96,4.72,4.43,17.39,10.25,35.58,12,54,1.84,19.46,12.8,44.67,18.3,64.2,1.11,3.93,1.47,8.51,2.62,12.37.58,1.95.1,3.54,3.07,3.43.38,14.59-.12,30.75-1.92,44.57-.24,1.85-1.87,1.31-2.06,2.12-.83,3.51.87,9.14-.2,12.63-.7,2.26-3.55,2.21-3.84,3.38-.92,3.81.94,10.7,0,14.61-.1.44-3.27,6.1-3.64,7.01-2.3,5.64-3.23,10.31-5.12,16.43-.74,2.41-3.13,3.59-3.2,3.94-.29,1.36.26,5.04,0,5.31-.34.34-3.68-.35-4.02-.01-.25.25.38,4-.29,5.76-.18.46-7.14,5.93-7.41,6.52-.56,1.28-.1,3.51-.3,3.72-.38.4-3.62-.39-4,.01-.2.21.27,2.44-.29,3.72-.1.23-3.13,2.78-3.71,3.27-29.76,25.38-55.79,49.85-91.12,68.38-72.46,38-162.66,40.38-236.14,3.38-13.5-6.8-25.37-16.77-38.74-23.76-2.77-7.61-6.22-14.09-8.02-22.31-.37-1.71-5.85-8.81-5.96-9.39-.42-2.06.34-4.45-.06-6.58-.16-.83-3.74-2.58-3.92-3.45-.46-2.22.19-4.95-.04-7.27,11.47,3.15,24.24,6.31,36,8,.79,5.54,6.92,9.83,10.58,13.95,4.38,4.94,8.25,10.45,13.92,15.1,1,.82,3.08.75,3.37,1.1.64.78-.28,3.3.19,3.8.24.26,2.74-.09,3.95.54.48.25,5.67,4.87,7.21,5.85,12.54,7.94,21.64,10.44,36.11,13.68.75.17.6,1.78,1.37,1.96,3.84.92,23.9.46,28.82.03,20.57-1.78,47.52-16.1,63.73-28.04,47.85-35.26,78.6-87.48,100.64-138.79,10.35-24.1,22.11-52.02,26.04-77.76.23-1.5,1.25-6.26-1.92-5.41,2.44-5.67,4.35-14.54,5.75-20.75,9.77-43.36,5.88-91.06,2.25-136.25,7.65-1.42,23.47,1.91,30,0h-.01Z"/>
  <path class="cls-2" d="M1139,753c-3.97-30.75,10.51-78.58,21.05-106.27.32-.83,3.66-3.58,2.96-6.72l4.76,12.72c.93,9.19,7.09,18.65,10.53,26.51.94,2.14,1.96,7.27,2.6,8.18.72,1.02,2.68.32,2.98.65.43.46-.1,4.34.4,6.16.86,3.13,5.56,9.89,5.68,10.49.44,2.11-.39,4.56.06,6.61.17.79,1.82.26,2.06,2.11.18,1.41-.42,6.26-.09,6.58.37.35,3.65-.36,4.02-.01s-.36,5.69.01,7.32c.19.81,1.82.27,2.06,2.12s-.5,9.14-.07,9.57c6.71-.23,13.38-4.23,19.99-2-1.3-4.7,2.01-3.73,2.01-4v-20c2.34-.13,1.77-.34,2,1.48,1.27,9.97-.35,23.49,0,34.06.06,1.92-1.02,4.01,2,3.45-.05,5.32.1,10.68,0,16-3.47-.69-1.36,2.01-1.98,4.33-.29,1.1-2.02.56-2.02.67v17c0,.11-1.73-.42-2.02.66-.67,2.51.47,7.02.09,9.91-.16,1.23-3.83,3.49-2.08,7.43-1.25,1.35-2.11,5.43-2.32,5.69-8.93,10.98-15.09,11.55-27.96,15.57-1.17.36-1.6,1.71-1.72,1.74-6.53,1.91-22.35-1.42-30,0-.72-9.02-.92-18.28-2.28-27.22-2.59-17.01-10.56-34.04-12.72-50.78h0Z"/>
  <path class="cls-2" d="M1157,582c.26-.19,1.63.32,2.18-.09,1.19-.89,7.77-5.92,8.28-5.98,1.9-.22,8.24-.3,9.84.1.67.17.68,1.49,1.03,1.63,4.98,2.05,8.02,2.7,11.63,7.09,2.09,2.54,4.8,8.53,6.37,10.93.45.69,3.25,2.25,3.37,2.57.86,2.29-.1,4.72.34,7.03.14.76,3.54,2.61,3.67,2.96,1,2.83,1.28,6.11,2.63,9.43,3.22,7.87,7.65,18.75,9.64,27.01.72,2.97-.59,7.41.06,10.58.18.87,3.74,2.59,3.91,3.46.75,3.68-.75,9.1.06,12.58.19.81,1.81.27,2.06,2.12.52,3.96-.66,9.15-.16,13.13.24,1.91,1.92.95,2.16,2.87,2.13,16.84.08,44.56-.08,62.57-3.02.56-1.94-1.53-2-3.45-.35-10.57,1.27-24.09,0-34.06-.23-1.82.34-1.62-2-1.48v20c0,.27-3.3-.7-2.01,4-6.61-2.23-13.28,1.77-19.99,2-.43-.43.31-7.79.07-9.57s-1.87-1.31-2.06-2.12c-.38-1.63.35-6.98-.01-7.32s-3.65.36-4.02.01c-.34-.32.27-5.17.09-6.58-.24-1.85-1.89-1.32-2.06-2.11-.45-2.05.39-4.5-.06-6.61-.13-.59-4.82-7.36-5.68-10.49-.5-1.81.03-5.7-.4-6.16-.3-.32-2.26.37-2.98-.65-.64-.91-1.66-6.04-2.6-8.18-3.44-7.86-9.6-17.32-10.53-26.51l-4.76-12.72c.69,3.14-2.64,5.89-2.96,6.72-10.54,27.69-25.02,75.53-21.05,106.27l-3,1c-.06-.66.07-1.35,0-2,2.99.51,2.09-1.31,1.75-3.24-.83-4.77-1.69-12.98-3.06-16.96-.53-1.54-1.49-2.75-2.7-3.8-.2-2.3.13-4.69,0-7-.14-2.45.49-5.4-2-7-.31-2.65-.6-5.37-1-8-.36-2.36-.97-1.85-1-2-.79-4.68-.92-10.23-2-15,2.43-1.19,2.62-6.23,2.87-8.63,2.8-26.65,5.81-54.31,16.95-79.05,1.22-2.72,9.8-18.34,11.18-19.32l.03.02Z"/>
  <path class="cls-5" d="M1588.8,538.3c24.08-1.71,53.17.33,62.24,27.16,18.96,56.11-68.08,64.85-103.83,71.25-37.73,6.75-71.44,10.98-108.42,22.58-22.58,7.08-47.24,20.19-66.31-4.26-7.55-9.69-5.99-11.69.57-20.48,36.14-48.5,156.7-92.04,215.76-96.24h0ZM1592.79,550.29c-55.56,3.76-171.48,43.76-207.31,87.69-4.28,5.25-6.8,7.29-.98,13,14.77,14.48,41.99-.75,58.28-5.7,44.91-13.66,90.72-17.09,136.25-26.75,19.39-4.12,60.17-11.18,62.01-35.99,2.25-30.46-24.33-33.87-48.25-32.25Z"/>
  <path class="cls-5" d="M126.35,742.65c-13.28-12.3-9.6-30.68,4.31-40.48,29.59-20.85,102.93.32,135.85,10.82,27.42,8.75,53.4,23.31,82.54,24.46,11.81,8.53,8.8,24.7-6.68,26.43-18.73,2.08-40.7-2.97-59.91-.83-22.68-1.05-45.27-2.39-67.97-4.03-20.88-1.51-73.19-2.52-88.14-16.36h0ZM133.34,733.66c5.57,5.54,22.42,8.05,30.29,9.21,45.32,6.69,91.26,6.89,136.91,8.09,14.08.37,25.38,2.83,39.99,1.08,1.5-.18,2.53-.07,3.46-1.55,1.05-4.83-13.95-3.24-16.48-3.5-13.63-1.37-40-14.46-54.56-19.44-32.41-11.1-93.06-29.25-125.93-20.02-10.86,3.05-24.46,15.42-13.69,26.14h.01Z"/>
  <path class="cls-5" d="M1549.45,785.44c-5.26,4.91-10.52,6.47-17.41,8.09-23.29,5.48-50.21,7.35-74.27,11.73-20.5,3.73-61.39,17.08-79.45,8.91-5.12-2.31-16.04-10.47-16.2-16.66-.2-7.7,6.61-5.61,10.84-7.07,3.21-1.1,17.56-14.75,22.11-17.89,31.62-21.77,102.62-47.31,140.14-37.28,23.03,6.16,32.58,33.04,14.24,50.15v.02ZM1378,799.01c-1.6,1.75,6.21,5.46,7.73,5.77,15.67,3.19,67.86-11.06,87.09-14.46,16.29-2.88,51.8-5,64.86-11.14,13.73-6.44,11.65-26.54-1.12-31.24-32.77-12.05-105.09,14.54-133.47,33.65-8.37,5.63-15.49,14.78-25.09,17.42Z"/>
  <path class="cls-2" d="M518,784c2.27.07,2.91-1.02,4.17,1.39,5.22,9.96,8.95,13.2,18.62,18.53,3.25,1.8,2.79-1.41,5.62,3.65.23.41,1.42.49,1.57,1.15.32,1.49-.28,3.17.04,4.6.1.46,3.87,6.9,3.97,7.36,2.23,9.84,9.41,16.53,13.01,25.32,17.75,43.26,34.29,86.89,52.52,129.98,1.94,4.59,5.6,8.88,5.48,14.02-3.38-4.59-13.1-6.7-14.71-10.28-.56-1.25-.06-3.41-.33-3.69-.23-.23-3.76.62-5.62-2.38-.96-1.55-3.77-8.14-4.67-9.35-2.42-3.27-9.39-9.5-11.36-12.63-.63-1-2.01-6.38-2.64-7.38-.53-.85-5.14-4.07-5.38-4.6-.64-1.42-.11-3.41-.3-3.72.8-2.99-1.81-1.73-2-2-.3-.44.28-3.82-.04-5.25-.29-1.29-3.79-2.56-3.96-2.75-4.46-4.97-5.27-10.8-8.32-15.68-.54-.86-3.45-2.19-3.64-3.05-1.42-6.45-3.73-8.41-6.37-14.94-5.03-12.45-12.25-26.22-17.33-38.65-3.6-8.81-6.59-17.63-10-26-2.89-7.09-3.65-14.08-6.67-21.35-2.4-5.79-2.15-15.05-1.66-22.33v.03Z"/>
  <path class="cls-5" d="M315.41,979.45c-11.28,10.36-24,22.86-33.92,34.54-9.92,11.68-21.12,31.96-34.11,37.89-37.76,17.23-74.78-18.99-46.38-55.38,15.83-20.28,70.75-48.37,95.32-58.68,14.07-5.9,31.23-14.05,45.61-5.26,5.59,3.41,12.63,11.16,9.32,18.2-.61,1.31-15.64,10.77-18.73,13.26-5.65,4.55-11.7,10.44-17.11,15.42h0ZM336.39,943.61c-5.17-5.01-8.69-3.92-15.61-2.34-24.8,5.66-94.54,43.15-110.29,62.71-17.55,21.81-4.1,42.82,22.89,39.89,18.5-2.01,32.22-29.58,44.11-42.89,8.71-9.75,20.35-21.04,29.99-30.01s19.39-18.93,31.52-23.99c.48-2.22-1.48-2.27-2.61-3.37Z"/>
  <path class="cls-5" d="M384.37,1110.62c-11.73-8-18.34-25.72-13.38-39.14,5.69-15.4,38.47-45.11,52.71-54.29,3.32-2.14,19.33-11.49,22.06-12.01,9.88-1.91,20.15,10.11,23.02,18.54,5.3,15.52-.15,13.49-9.3,22.25-4.9,4.69-9.81,9.67-13.89,15.11-13.37,17.85-29.34,71.28-61.22,49.53h0ZM418.58,1035.58c-8.58,6.97-33.9,30.26-36.63,39.87-2.07,7.28-1.4,12.94,3.05,19.05,19.85,27.21,35.8-15.29,44.19-28.81,3.68-5.92,8.25-12.99,12.78-18.22,2.44-2.82,15.54-13.92,15.88-15.2.85-3.21-3.03-14.32-7.31-14.34-8.5-.05-25.34,12.27-31.96,17.65Z"/>
  <path class="cls-10" d="M397,520c.6,7.41,1.28,12.72,3,20,.47,1.98,1.11,3.92,1.01,5.99h.98c.05-.66-.04-1.33.01-1.99l1.5-4.01c1.32,0-.96,5.28,2.5,4.01,5.64,30.71,21.47,61.24,41.49,85.01,37.5,44.53,68.12,57.21,81.51,120.99.27,1.31.89,3.28,1,4,.1.63-.07,1.35,0,2,.24,2.12.8,3.83,0,5.99-2.59.84-2.54-2.98-3.58-3.07-2.37-.21-3.59,2.32-4.41,4.08-.12-3.04.96-6.87.87-7.25-.25-1.03-1.79-2.29-2.35-3.77-8.77-23.03-14.66-45.9-31-64.99-26.61-31.09-53.12-48.61-74.03-86.97-14.86-27.26-17.95-46.29-20.46-76.57-.16-1.89-.92-4.02,1.98-3.45h-.02Z"/>
  <path class="cls-9" d="M170.81,1689.79c-2.35.86-5.98.07-6.66-2.51-.8-3.03,8.01-21.45,10-25.63,27.66-58.02,49.44-102.23,55.84-168.16.27-2.82-1.15-9.42,1.65-10.35,8.24-2.73,7.7,3.6,7.4,9.4-1.75,34.15-14.4,77.4-26.57,109.43-11.54,30.38-28.37,58.24-41.67,87.82h.01Z"/>
  <path class="cls-5" d="M1237.42,322.58c18.14,21.84,17.2,50.74,3.39,74.72-9.24,16.04-29.97,34.51-50.06,29.45-5.75-1.45-10.52-9.63-3.25-9.85,6.61-.2,9.42,1.85,17.53-.39,32.21-8.93,46.42-60.78,26.41-87.45-2.85-3.81-16.79-13.64-16.27-16.42.18-.95,2.57-3.23,3.56-3.5,5.31-1.45,15.46,9.55,18.69,13.44Z"/>
  <path class="cls-5" d="M385,387c2.01,2.06-5.75,8.94-7.4,11.1-25.97,34.06-33.01,81.28-28.49,123.28.73,6.8,7.77,20.54-4.46,17.66-6-1.41-6.11-54.17-5.65-61.53,1.26-19.96,14.54-74.72,32.46-85.54,2.02-1.22,4.36-1,5.85-1.91.91-.56.97-2.46,2.31-2.9.92-.3,5.18-.35,5.37-.16h0Z"/>
  <path class="cls-6" d="M444,366c-6.76,11.55-13.81,24.79-19.22,37.3-18.82,43.56-27.68,92.24-18.78,140.7-3.46,1.27-1.18-4.01-2.5-4.01l-1.5,4.01c.09-1.32-.03-2.67,0-4,.04-1.87.36-11.53,0-12.01-.12-.16-1.44.1-2,0-.21-2.06-.93-4.73-1-6,1.66-1.04,1-3.8,1.02-5.49.12-9.5-.25-19.03-.02-28.51.04-1.66-.06-3.34,0-5s-.09-3.34,0-5c.27-5,1.05-17.01,2.02-21.32s1.15-8.48,2-12c.45-1.88,5.6-11.82,5.95-13.38.87-3.81.24-11.12.03-15.3,3.58-.88,2.06,1.18,3.98,1.99,2.47-2.04.67-9.61,1.03-9.98.33-.33,2.83.62,3.05-.55.36-1.95-.51-4.63-.03-6.76.16-.73,1.63-.77,1.89-1.47.85-2.32,1.37-4.86,2.09-7.22l1.98,1.99c.06-1.98-.25-5.85.91-7.41.81-1.08,2.52-.33,3.06-.64.14-.08-.85-1.95-.06-3.22.64-1.03,2.68-1.46,3.96-3.35,4.02-5.95,2.44-9.12,9.82-13.69.72-.44-.02-3.8,2.33.32h-.01Z"/>
  <path class="cls-5" d="M1183.59,321.41c10.63,8.34,15.81,23.18,12.72,36.41-1.2,5.14-11.66,25.88-18.42,17.76-2.86-3.44,4-8.85,5.91-12.27,6.68-11.98,4.56-23.72-4.8-33.52-2.81-2.95-10.1-5.43-10.11-9.27-.02-9.1,11.32-1.75,14.7.9h0Z"/>
  <path class="cls-5" d="M1176.86,412.14c1.25,2.01-.94,7.66-.89,10.31.11,6.9,1.74,17.94,3.31,24.77,1.08,4.7,7.85,20.02,5.58,23.62-2.64,1.38-6.57,1.87-8.16-1.11-3.77-7.08-9-27.19-9.68-35.25-.33-4-.41-21.15,2.09-23.36.78-.69,7.24.21,7.75,1.02h0Z"/>
  <path class="cls-5" d="M1073.03,253.97c-.86-.59-.47-4.06.15-5.22,2.92-5.48,8.76-4.29,9.8-15.26.57-5.96-1.31-25.99-4.13-30.84-2.11-3.63-9.3-6.24-3.8-11.1,6.03-5.33,9.71,6.11,11.24,10.67,3.37,10.08,7.38,29.1,3.21,38.77-1.72,3.99-11.82,16.17-16.46,12.98h-.01Z"/>
  <path class="cls-11" d="M400,478c-.09,1.66.06,3.34,0,5-1.6.84-.97,3.39-1,5-.22,10.87-.6,23.24,0,34,.07,1.27.79,3.94,1,6,.4,3.99,1.16,7.96,1,12h-1c-1.72-7.28-2.4-12.59-3-20-.91-11.21-1.08-26.35,0-37.51.17-1.77.26-5.09,3-4.49Z"/>
  <path class="cls-6" d="M1224,768c-.22,11.64-1.63,16.94-3.98,26.69-.72,2.97.58,7.4-.07,10.58-.25,1.24-3.76,2.52-3.96,2.73-1.75-3.94,1.92-6.21,2.08-7.43.38-2.89-.77-7.4-.09-9.91.29-1.07,2.02-.55,2.02-.66v-17c0-.11,1.73.44,2.02-.67.62-2.32-1.49-5.02,1.98-4.33h0Z"/>
  <path class="cls-17" d="M572,926c.17.19,3.67,1.46,3.96,2.75.32,1.43-.26,4.81.04,5.25.19.27,2.8-.99,2,2-.11-.17-1.58-1.57-2-2-.12-.12-1.14.25-1.7-.32-2.61-2.67-2.72-3.61-2.3-7.68Z"/>
  <path class="cls-10" d="M522,764c.08,2.92,1.14,9.06-2,8,.34-3.09-1.49-8.92,2-8Z"/>
  <path class="cls-16" d="M1788,1080c1.69,1.76,2.01,7.08-1,6,.16-2.59.86-4.55,1-6Z"/>
  <path class="cls-16" d="M1789,1042c-.01,1.33.02,2.67,0,4-2.97,1.09-3.23-4.91,0-4Z"/>
  <path class="cls-16" d="M1789,15c-1.65-1.26-1.65-5.74,0-7,.05,2.33-.01,4.67,0,7Z"/>
  <path class="cls-16" d="M1788,1090h-1c-.08-.27.03-.65,0-1-.03-.33.02-.67,0-1,.97.31.92,1.14,1,2Z"/>
  <path class="cls-9" d="M32,2298c.3-.36.7-.65,1-1l-1,1Z"/>
  <path class="cls-20" d="M464,2211c3.06.56,1.89-1.54,2-3.46,3.51-63.67,27.15-149.19,60.18-203.86,15.84-26.21,39.47-50.75,72.52-35.89,17.42,7.83,21.49,24.6,28.06,40.94,17.94,44.62,32.68,90.65,50.76,135.24l15.48,33.02c-3.62-.59-6.08-1.8-10.06-.55-.86.27-10.61,7.94-10.94,8.55-7-2.73-13.46-1.45-20.49-2.01-34.48-2.73-69.54-6.99-103.97-5.95-13.33.4-41.22.35-49.54,12.46-2.75,4-3.46,12.61,2.5,12.6,6.99,0,3.47-8.69,4.62-9.99.6-.69,14.44-4.69,16.49-5,36.34-5.53,83.79,1.25,120.91,3.89,7.72.55,15.75.44,23.49,1.01-4.27,9.36-7.71,21.9-11,32-6.81.67-14.75.32-21.39,1.11s-10.37,4.59-17.61,4.89c-9.45.4-21.94-2.84-31.51-3.99-20.97-2.52-41.96-4.91-63-8-18.83-2.77-38.5-4.86-57.49-7.01h-.01Z"/>
  <path class="cls-9" d="M672,2185.38c-2.1,3.87-5.8,6.55-6,7-7.74-.57-15.77-.46-23.49-1.01-37.12-2.64-84.57-9.42-120.91-3.89-2.06.31-15.89,4.31-16.49,5-1.14,1.31,2.37,9.99-4.62,9.99-5.95,0-5.24-8.6-2.5-12.6,8.33-12.11,36.22-12.05,49.54-12.46,34.43-1.04,69.49,3.22,103.97,5.95,7.03.56,13.49-.71,20.49,2.01h.01Z"/>
  <path class="cls-11" d="M655,2224c-.96,2.94-1.56,2.8-1.93,3.76-.91,2.39.42,7.61-3.56,8.26l-33.51-6.02c7.24-.3,10.9-4.1,17.61-4.89s14.58-.44,21.39-1.11Z"/>
  <path class="cls-15" d="M1454,2133l-1.93,2.95c2.24.06,3.03,2.83,4.25,3.73.78.58,2.49.07,3.37.65.74.49,2.14,3.17,2.6,3.38,1.25.56,3.41.07,3.68.34.35.35-.28,2.31.1,3.14,1.64,3.53,5.67,2.59,5.93,2.83.41.38-.39,3.61.01,3.99.26.25,2.21-.25,3.17.07,3.23,1.07,2.61,5.65,2.86,5.9.27.27,2.44-.23,3.69.33.6.27,5.37,6.39,6.59,7.39,6.34,5.18,15.03,11.47,21.37,16.64,1.21.99,6.01,7.13,6.59,7.38,1.28.56,3.51.1,3.72.3.4.38-.39,3.61.01,4,.26.25,2.21-.25,3.17.07,3.23,1.07,2.61,5.65,2.86,5.9.36.35,2.31-.28,3.13.11,3.52,1.64,2.59,5.67,2.83,5.93.37.4,3.63-.35,4.01,0,.41.38.23,10.23-.04,11.3-.12.47-3.78,7.56-4.29,8.39-.94,1.51-2.94,4.41-4,6-.5.74-3.18,2.14-3.38,2.6-.56,1.28-.1,3.51-.3,3.71-.37.4-3.67-.35-4.01,0s.4,3.64,0,4.01c-.21.19-2.43-.26-3.71.3-.46.2-1.86,2.88-2.6,3.38-.86.57-2.5.08-3.36.65-.74.5-2.14,3.18-2.6,3.38-1.28.56-3.5.1-3.71.3-.4.37.34,3.66,0,4.01-.24.25-3.91-.26-5.28.03-.83.18-2.19,3.11-3.04,3.64s-2.25.09-2.84.42c-9.47,5.31-18.89,10.06-27.16,15.58-1.17.78-5.83.57-5.68,4.33-.67-.58-10.24-1.91-12.78-2.72-47.5-15.17-90.97-52.8-126.22-86.74-2.31-1.18-5.49-.45-8-.54,2.47-1.92,5.87-.61,9.04-1.46,2.74-.74,8.52-4.57,12-6,39.88-16.44,80.59-32.73,119.97-49.53l-.02-.07Z"/>
  <path class="cls-19" d="M1650,2054c36.55-65.22,47.92-142.76,38.25-216.75-86.48-117.86-99.29-282.41-94.26-424.76,3.52-99.57,21.26-236.34,67.83-325.17,2.39-4.56,8.36-17.89,14.97-14.09,5.48,3.15-2.65,11.78-4.6,15.46-44.29,83.35-61.92,205.15-67.19,298.81-8.1,143.89,1.65,314.61,85.19,436.82,5.78,8.46,7.37,6.61,8.81,18.19,5.63,45.19,1.65,97.84-10.28,141.71-6.11,22.46-14.91,44.29-25.72,64.78-.32.16-.62.76-1,1-3.35-2.18-5.55,3.69-6.75,3.96-1.7.39-3.73-.26-5.25.04Z"/>
  <path class="cls-6" d="M1663,2049c2.83-1.42,10.01-1.75,14.21-3.1,6.26-2,24.38-5.29,32.25-5.94,22.38-1.83,47.12.45,67.25,5.99,2.9.8,7.21.04,10.28,2.05v64c-.28-17.02.53-42.84-2.95-58.55-.38-1.71.08-3.69-.04-5.46-4.06-.25-8.44.41-12.45-.05-1.72-.2-3.25-1.5-5.1-1.9-14.76-3.18-40.76-6.25-57.02-4.13-1.85.24-1.31,1.86-2.12,2.06-4.49,1.06-12.5.95-17.77,2.07-5.69,1.21-9.65,1.26-14.81,2.19-4.72.85-4.74,5.7-12.08,3.78-1.05-.27-.56-1.96-.65-2.01.38-.24.68-.84,1-1Z"/>
  <path class="cls-19" d="M1648,2055c-.64,1.24-2.79,1.72-3,0,.84-.21,2.14.2,3,0Z"/>
  <path class="cls-11" d="M1150,2200c-7.35.28-14.52,1-22,1h-5c3.41-11.53.22-34.85-.04-47.46-2.1-100.34-8.45-200.31-13.96-300.54-1.79-32.63-4.51-65.46-6-98,.98-4.15,1.85-10.22,2.04-14.46,1.03-23.31-.47-47.89-1.09-70.99-.58-21.81-.88-46.37,0-68.09.17-4.21,2.11-10.12,2.08-13.99-.02-2.59-2.43-4.97-2.1-6.87.23-1.34,3.73-.68,4.11-2.26.56-2.32.18-11.82,0-14.88-.09-1.54-.9-9.88-1.18-10.31-1.17-1.83-5.92,1.67-4.91-5.66.44-3.16,2.85-4.57,3.01-7.02.11-1.65-.95-3.32-.97-4.97-.07-6.5,1.42-11.79,3.19-17.79.45-1.51,2.61-2.16,2.82-4.21.35-3.41-2.11-11.43-1.22-15.78-.84-2.86-4.63-2.82-4.89-5.2-.34-3.11,1.11-6.01,1.13-8.97.26-30.75-3.26-63.17-1.08-94.09.22-3.1,2.08-6.27,2.1-7.91,0-1.13-1.77-.3-2.06-.55-3.28-2.82,2.32-7.57,2.85-9.79.33-1.38-.88-2.09-.85-2.21,3.11-9.77,7.43-22.69,11.53-31.97,3.25-7.34,8.94-14.04,10.47-22.03,1.03-.39,4.82-4.28,8-4,.48,1.2,3.09,3.94,4.28,7.22,7.15,19.66-1.8,23.89-8.48,40.09-10.65,25.82-8.37,48.17-8.77,75.23-3.3,224.75,12.16,449.36,22,673.92.96,21.96.66,44.08,1.97,66.03.52,8.78,1.69,17.81,2.99,26.51h.03Z"/>
  <path class="cls-10" d="M1095,1828c.2,1.41,8.02,16.65,9.63,19.87.78,1.57,2.12,5.57,4.37,5.13,5.51,100.23,11.86,200.2,13.96,300.54.26,12.61,3.45,35.92.04,47.46-.71,2.4-3.92,5.79-6.44,5.84-8.24.18-4.8-4.03-5.55-4.85-.61-.67-15.52-.06-18.01,0v-1c3.72-.28,12.47.84,15,0,2.78-.92.04-14.54-.04-17.46-.61-21.84,1-44.08,1.04-65.54,2.97,1.09,3.23-4.91,0-4v-2l4.54-.04c1.63,2.6-1.55,8.75,2.46,8.04-1.06-10.48-.53-21.04-.95-31.54-2.73-67.17-9.92-134.65-12.08-201.92-.35-10.87,1.12-23.55.05-34.06-.2-1.91-3.38-7.57-4.65-9.29-1.07-1.45-2.14-1.01-2.36-1.19-.12-.1.47-1.71-.66-2.02-2.35-.63-14.65,2.97-11.87-2.01,1.4-2.5,6.01-.68,4.58-5.42-.61-2.01-9.53-.05-8.05-3.55,5.01-.17,10.18.67,15-1h-.01ZM1115,2148c-3.93-.75-1.06,4.36-1,6.51.28,10.03.59,19.99,1.01,30,.06,1.54-.94,3.96,1.48,3.48,1.77-1.15,1.42-2.69,1.57-4.44.94-11.19-2.55-24.27-3.06-35.56h0Z"/>
  <path class="cls-13" d="M792,2206c.15-.64-.57-1.87.59-2.05,38.65-.13,77.31.34,115.95.09,14.73-.09,30.08-1,44.92-1.08,17.01-.1,34.03.17,51.04.04l-5.5,2c-66.56,1.35-133.32,1-200,1l-1.49-.99-.51.99h-5Z"/>
  <path class="cls-13" d="M1108,2201c-2.53.84-11.28-.28-15,0-.85.06-1.73.03-2,1-5.37.13-10.59.85-16,1-.14-1.5-2.86-1.5-3,0-17.96.48-36.05.39-54,1-.56-3.03,1.53-1.92,3.45-2,21.18-.84,41.96.36,63.05-3.08l23.5,2.08Z"/>
  <path class="cls-13" d="M1008,2205c-.88-3.56,4.66-1.16,7.49-3.01l.51,2.01c-1.82.08-4.93.94-8,1Z"/>
  <path class="cls-16" d="M1293,2191c-2.36,1.96-6.8.81-10,1,2.36-1.93,6.81-.85,10-1Z"/>
  <path class="cls-10" d="M1168,2200c-2.65.12-5.35-.1-8,0,1.58-1.68,6.46-1.67,8,0Z"/>
  <path class="cls-11" d="M1075,2203c-1,.03-2-.03-3,0,.14-1.5,2.86-1.5,3,0Z"/>
  <path class="cls-10" d="M1128,2201c-.14,1.5-2.86,1.5-3,0h3Z"/>
  <path class="cls-11" d="M1093,2201v1c-.67.02-1.33-.02-2,0,.27-.97,1.15-.94,2-1Z"/>
  <polygon class="cls-11" points="799 2206 797 2206 797.51 2205.01 799 2206"/>
  <path class="cls-19" d="M1787,1683c-5.23,2.34-6.95,11.05-9.62,15.88-15.56,28.08-39.99,56.44-69.03,70.97-4.77,2.39-18.32,9.39-22.77,6.26-.96-.67-.85-7.58-.48-8.01.57-.67,13.6-4.53,16.57-5.92,27.17-12.68,47.29-36.2,62.74-61.26l22.58-40.92v23h.01Z"/>
  <path class="cls-13" d="M1788,1094c.13,11.31.05,22.69,0,34-1.84,2.64-.98,7.54-1,11v17c-.03,38.98,0,78.02,0,117v5c0,73.46-.79,147.05-.02,220.51.02,1.69-.64,4.45,1.02,5.49-.02,2.66.03,5.34,0,8l-1,4c-.04,3.32.03,6.68,0,10v1c.04,2.66-.03,5.34,0,8l1,1c.07,2.64.07,5.36,0,8l-1,1c-.14,1.73-.19,4.31,0,6-2.33-150.81-.34-302.43-1-453.55l2-3.45Z"/>
  <path class="cls-20" d="M1788,1504c-1.66-1.04-1-3.79-1.02-5.49-.77-73.47.02-147.05.02-220.51,1.66,1.04,1,3.79,1.02,5.49.91,73.4.56,147.12-.02,220.51Z"/>
  <path class="cls-20" d="M1787,1273c0-38.98-.03-78.02,0-117v117Z"/>
  <path class="cls-19" d="M1787,1723v-35c1.66,1.04,1,3.79,1.02,5.49.1,7.99.08,16.03,0,24.03-.02,1.69.64,4.45-1.02,5.49h0Z"/>
  <path class="cls-19" d="M1787,1608c0-7.42-.84-15.92,1-23,0,7.42.84,15.93-1,23Z"/>
  <path class="cls-19" d="M1787,1657c0-5.32.03-10.68,0-16,1.66,4.05,1.69,11.74,0,16Z"/>
  <path class="cls-19" d="M1787,1629c-.02-4.66,0-9.34,0-14,1.67,3.35,1.7,10.44,0,14Z"/>
  <path class="cls-19" d="M1787,1888c-.01-4.65-.11-9.35,0-14,1.67,3.35,1.7,10.44,0,14Z"/>
  <path class="cls-20" d="M1787,1139c.02-3.46-.84-8.36,1-11-.02,3.46.84,8.36-1,11Z"/>
  <path class="cls-19" d="M1788,1808c-1.67-1.54-1.68-6.42,0-8,.02,2.66-.02,5.34,0,8Z"/>
  <path class="cls-20" d="M1787,1152v-8c1.68,1.58,1.67,6.46,0,8Z"/>
  <path class="cls-19" d="M1787,2044v-8c1.68,1.58,1.67,6.46,0,8Z"/>
  <path class="cls-19" d="M1787,1992v-8c1.68,1.58,1.67,6.46,0,8Z"/>
  <path class="cls-19" d="M1787,1976c.02-2.51-.78-6.34,1-8-.02,2.5.78,6.34-1,8Z"/>
  <path class="cls-19" d="M1788,1904c-1.78-1.66-.98-5.5-1-8,1.78,1.66.98,5.5,1,8Z"/>
  <path class="cls-19" d="M1788,1856c-1.67-1.54-1.68-6.42,0-8-.03,2.66.03,5.34,0,8Z"/>
  <path class="cls-19" d="M1788,1840c-1.67-1.54-1.68-6.42,0-8-.01,2.66.02,5.34,0,8Z"/>
  <path class="cls-19" d="M1787,1869c.06-1.6-.62-4.15,1-5-.04,2.3-.99,4.74-1,5Z"/>
  <path class="cls-19" d="M1787,1821c.06-1.6-.62-4.15,1-5,.01,2.42-1,4.74-1,5Z"/>
  <path class="cls-20" d="M1787,1516l1-4c-.02,2.33-1,3.79-1,4Z"/>
  <path class="cls-19" d="M1788,1824l-1-1c0,.07,1,.3,1,1Z"/>
  <path class="cls-20" d="M1788,1552c-.26-.31-.97-.74-1-1,.23.35.94.74,1,1Z"/>
  <path class="cls-20" d="M1787,1545l1-1c-.02.71-.99.93-1,1Z"/>
  <path class="cls-20" d="M1788,1536l-1-1c0,.07.98.29,1,1Z"/>
  <path class="cls-20" d="M1788,1091c-.46-.17-.86-.52-1-1h1c.03.33-.01.67,0,1Z"/>
  <path class="cls-8" d="M695,1096c7.29,6.69,10.52,10.93,18.68,16.33.96.63,1.96,3.22,3.13,3.62.95.32,2.91-.19,3.18.06.4.38-.39,3.62.01,4,.21.2,2.44-.27,3.72.3.64.28,5.35,6.44,6.59,7.38.76.58,2.49.07,3.37.65.96.63,1.96,3.22,3.13,3.62.95.32,2.91-.19,3.18.06.4.38-.39,3.62.01,4,.2.19,2.44-.26,3.71.3.46.2,1.86,2.88,2.6,3.38,8.39,5.6,20.13,11.5,28.84,16.42,10.37,5.86,19.18,9.59,30.12,11.94.79.17,2.6,3.54,2.97,3.67,1.84.65,3.46-.05,5.07.3.67.15.05,1.27,2.68,1.99.23,2.32-.42,5.05.04,7.27.18.87,3.76,2.61,3.92,3.45.4,2.13-.35,4.52.06,6.58.12.57,5.59,7.68,5.96,9.39,1.8,8.22,5.25,14.7,8.02,22.31,7.62,20.98,14.8,42.37,23.52,62.98,2.75,6.5,7.56,19.49,11.17,24.76.98,1.44,1.96,1.46,3.31,2.26-.78-.12-4.98-.69-3.99,1.49.5,1.1,4.8,6.69,5.99,7.51-2.34,1.01-.22,2.96.37,4.13,3.67,7.22,16.06,25.19,21.63,30.87l-.97.49c2.72,1.31,2.7,6.25,2.97,6.51-7.04,6.56-11.02,16.01-14.79,24.76-.54,1.26-2.16,2.09-2.21,2.24-5.23-1.14-4.08-5.5-5.8-8.7-3.03-5.62-8.31-11.71-10.68-17.33-.7-1.67-.24-4.35-.68-4.87-.27-.31-1.89.22-2.9-.75-2.96-2.83-26.71-40.41-29.14-45.65-3.41-7.37-.94-21.09-5.76-27.24-.76-.97-8.32-6.95-9.6-7.4-27.02-9.42-30.35,27.98-36.75,44.11-2.9,7.31-7.93,14.08-11.06,20.94-16.29,35.63-34.52,82.97-39.6,122.4-.85,6.62,1.16,17.86-4.01,22.49-33.86-42.83-39.31-126.92-42.01-180.49-3.47-68.72-3.43-139.11,11.55-206.48.45-2.02.65-3.97.46-6.03v-.02Z"/>
  <path class="cls-19" d="M922.65,2020.65c-16.68,17.12-34.52,34.32-52.64,49.87-6.26,5.37-16.98,15.64-23.52,19.48-1.61.94-3.22,1.79-5.13,1.96-5.19.45-18.59-2.29-24.59-3.23-36.31-5.72-80.54-16.25-115.54-27.46-22.5-7.2-34.33-9.92-38.22-35.78-1.75-11.67-2.23-10.62-6.06-20.94-20.18-54.47-33.4-109.21-46.25-165.75-1.55-6.83-5.97-18.49-6.48-24.56-.45-5.33,5.87-6.26,10.14-7.36,36.19-9.37,76.1-14.67,112.9-22.1,51.18-10.34,102.24-21.64,153.53-31.47,4.42-.85,33.76-6.88,35.24-5.86,1.14.78,2.21,5.53,2,7.03-.31,2.12-2.57,2.78-3.02,5.06-2.41,12.29,3.96,44.01,6.28,57.69,5.38,31.84,12.35,64.16,19.17,95.83,3.83,17.8,13.45,45.73,14.57,62.42.16,2.37.21,5.52-.26,7.81-1.25,6.11-26.17,31.28-32.12,37.38v-.02ZM905,1759l-289,57,11.9,52.4,123.11-3.41c-2.01-6.28-4.82-16.18-.57-22.06,5.31-7.35,30.58-14.14,38.86-11.73,4.02,1.17,7.4,10.4,8.88,14.12,1.08,2.71,3.66,15.24,6.29,14.65l105.12-49.95-4.59-51.03h0ZM908,1823.01l-78.67,33.82c-21.42,11.7-41.47,21.66-66.81,20.17-37.12-2.19-73.76-1.88-111.05-.03-6.39.32-13.43,1.9-19.93,2.04-1.27.14-1.07,3.47,1.96,4.01,5.65,1,14.07.44,20,1,45.72,4.38,100.89,13.18,145.71,1.7,25.21-6.46,85.3-42.66,106.52-59.48.66-.53,3.52-2.07,2.27-3.22h0ZM878.38,2006.4c20.13-20.05,41.92-38.75,58.65-61.95-3.98-21.21-9.37-42.13-13.74-63.24-3.2-15.48-5.32-31.18-8.32-46.68-.23-1.17-.41-1.81-1.47-2.5-15.27,12.69-32.38,22.63-49.63,32.35-19.17,10.8-46.78,27.74-67.67,32.33-18.51,4.07-37.83,4.35-56.75,4.33l-105.45-8.04c9.69,41.1,21.92,81.85,38.2,120.8,37.67,6.89,74.43,22.95,111.78,30.71,13.56,2.82,36.14,6.34,49.57,4.55,2.83-.38,5.73-3.12,7.97-5.03,12.72-10.86,24.88-25.7,36.85-37.62h0ZM940.99,1958c-1.61-.37-2.04.56-3.02,1.47-5.24,4.85-10.8,12.83-15.94,18.06-18.31,18.61-37.65,36.37-56.05,54.95-8.71,8.8-16.23,19.32-26.69,26.31-27.26,1.45-53.16-3.44-79.3-10.27-28.8-7.53-56.75-18.84-85.98-24.51-1.63,21.46,22.58,25.9,38.78,30.71,40.37,11.98,82.6,19.71,123.82,28.24l3.66-.15c19.24-15.91,38.3-32.44,56.24-49.76,14.68-14.18,34.09-32.73,46.45-48.57,5.12-6.56,2.16-5.6.87-11.81-1.01-4.87-1.77-9.81-2.85-14.66h0Z"/>
  <path class="cls-19" d="M900,1376l4.51-6.99c2.35-.43,1.38,2.93,2.01,4.96.18.59,1.44.89,1.48,1.03,2.38,9.57-.07,21.7,1.08,31.42,3.08,26.15,34.12,64.43,48.33,87.67,18.37,30.01,36.01,63.02,50.58,94.92,8.55,18.72,17.48,41.38,24.75,60.75,21.61,57.62,33.76,119.28,47.25,179.25-1.47,3.5,7.45,1.54,8.05,3.55,1.43,4.74-3.19,2.92-4.58,5.42-2.78,4.98,9.53,1.38,11.87,2.01,1.12.3.54,1.92.66,2.02.26,12.15-.34,24.38-.04,36.54,1.89,77.18,9.71,154.36,13.04,231.46-2.24.45-3.01-2.26-3.7-3.77-33.96-74.06-70.12-185.35-76.3-266.23,13.01-5.62,27.14-7.57,41-10.01-13.31-64.67-28.61-129.19-52.08-190.93l-2.92-.07c-.03,12.45-2.19,24.96-4.26,37.25-.48,2.87-5.83,3.91-7.31,1.82-1.58-2.24,3-25.8,3.55-30.57,1.18-10.16,4.08-23.59.77-32.75-10.17-28.14-29.8-64.96-44.59-91.41-9.87-17.65-20.63-35.6-33.17-51.33-.58-3.56-21.36-34.63-25.19-44.31-4.95-12.53-5.34-37.65-4.81-51.69h.02ZM1056.14,1859.15l5.86,112.35c.97,5.05,10.41,2.24,9.1-2.99-2.13-26.31-4.55-52.72-6.09-79.02-.4-6.87.5-14.17-.02-20.98-.11-1.44-1.16-9.17-1.42-9.57-1.14-1.71-6.82-.75-7.42.21h0Z"/>
  <path class="cls-20" d="M930,1472c12.54,15.73,23.3,33.68,33.17,51.33,14.79,26.45,34.42,63.27,44.59,91.41,3.31,9.16.4,22.58-.77,32.75-.55,4.77-5.13,28.33-3.55,30.57,1.48,2.1,6.83,1.06,7.31-1.82,2.07-12.29,4.23-24.8,4.26-37.25l2.92.07c23.47,61.73,38.78,126.25,52.08,190.93-13.87,2.44-27.99,4.39-41,10.01-3.89-50.94-17.47-108.62-28.75-158.75-12.94-57.56-32.06-104.85-52.78-159.22-6.26-16.42-14.75-33.35-17.47-50.03h-.01Z"/>
  <path class="cls-19" d="M613,1966.99c-7.39.81-9.69-.35-12.47-7.02-70.07-208.37-129.79-420.05-189.28-631.72-2.54-9.78,8.1-11.15,10.04-2.04,32.61,116.05,64.74,232.28,99.22,347.78,29.31,98.16,60.84,195.6,92.49,293Z"/>
  <path class="cls-20" d="M875,1406c-12.09-.41-36.75-11.46-48.39-17.11-23.42-11.37-34.9-26.07-59.64-5.41-2.48,2.07-3.12,6.07-6.98,5.52,6.6-19.39,17.24-49.34,32.03-63.51.78-.74.85-2.39.97-2.49.66-.52,12.29-5.33,14-6,2.12-.83,2.26-1.88,2.44-1.87,15.21.5,21.54,14.61,28.98,25.95,13.6,20.74,24.92,43.06,36.58,64.92h.01Z"/>
  <path class="cls-9" d="M725,1489c5.18-4.62,3.16-15.87,4.01-22.49,5.08-39.43,23.32-86.77,39.6-122.4,3.13-6.85,8.16-13.62,11.06-20.94,6.4-16.13,9.73-53.53,36.75-44.11,1.29.45,8.85,6.43,9.6,7.4,4.82,6.15,2.35,19.86,5.76,27.24,2.43,5.24,26.18,42.82,29.14,45.65,1.02.97,2.64.45,2.9.75.45.51-.02,3.19.68,4.87,2.37,5.62,7.64,11.71,10.68,17.33,1.73,3.2.57,7.56,5.8,8.7-.25.77-.17,5.86,0,7l-5.01.51c-.48,3.41,3.4,6.95,4.01,10.49-1.84-1.21-3.5-2.95-5-3-11.67-21.85-22.98-44.18-36.58-64.92-7.44-11.34-13.77-25.46-28.98-25.95-.17,0-.31,1.04-2.44,1.87-3.01-4.06,6.79-2.67,8.32-3.02.75-.17.6-1.78,1.36-1.96,1.39-.33,5.01.29,5.32-.01.56-.54.27-13.76.04-15.55-.61-4.81-6.2-12.77-11.65-13.38-12.67-1.43-15.25,15.24-17.43,24.4l.03,15.53c-.12.09-.19,1.75-.97,2.49-14.8,14.17-25.44,44.12-32.03,63.51-11.87,34.88-21.05,70.95-24.17,107.81-6.07,3.31-8.23-4.52-10.83-7.81h.03ZM848.43,1346.63c-.58-.97-2.24-5.81-4.42-3.62-1.4,1.4,6,11.3,6.02,4.49,0-.54-1.34-.44-1.6-.87h0Z"/>
  <path class="cls-19" d="M332.75,1775.27c19.54,44.79,53.27,81.8,93.34,109.15,36.85,25.16,78.95,43.18,123.86,49.14,3.65,1.57,1.73,9.26-1.43,9.49-2.76.2-12.28-1.7-15.72-2.33-77.55-14.21-162.91-73.05-199.96-143.04-3.24-6.11-15.62-27.16-.08-22.41h-.01Z"/>
  <path class="cls-9" d="M1096,1842c.22.18,1.29-.26,2.36,1.19,1.26,1.72,4.45,7.38,4.65,9.29,1.08,10.51-.4,23.19-.05,34.06,2.16,67.27,9.35,134.74,12.08,201.92.43,10.49-.11,21.06.95,31.54-4.01.71-.83-5.44-2.46-8.04l-4.54.04c0-.67.03-1.34,0-2-3.33-77.1-11.15-154.28-13.04-231.46-.3-12.16.31-24.39.04-36.54h.01Z"/>
  <path class="cls-19" d="M399.31,1827.3c.71-.87,3.54-2.59,4.63-1.85,30.97,21.58,59.4,52.32,98.68,57.43,3.57.46,19.69.42,21.41,1.58,2.58,1.74,2.6,8.94-2.48,9.6-7.02.9-22.44-1.7-29.77-3.35-36.09-8.11-63.02-36.04-92.32-56.68-2.22-1.61-1.74-4.81-.17-6.73h.02Z"/>
  <path class="cls-20" d="M910,1373c-2.07.03-2.24-.49-2,2-.03-.14-1.3-.44-1.48-1.03-.63-2.03.34-5.39-2.01-4.96l-4.51,6.99c.12-3.12,2.01-8.03,1.07-11.46-.33-1.2-2.81-.28-3.07-.54s-.25-5.21-2.97-6.51l.97-.49c4.85,4.94,14.04,7.66,14,16Z"/>
  <path class="cls-10" d="M881,1398c.7,4.63,7.53,11.33,7,13.48-1.05,4.26-7.05-1.85-8-2.48-.6-3.54-4.49-7.08-4.01-10.49l5.01-.51Z"/>
  <path class="cls-9" d="M1109,2114c3.23-.91,2.97,5.09,0,4v-4Z"/>
  <path class="cls-19" d="M1573,1649c-1.05,15.14-3.1,30.37-3.99,45.51-3.05,51.41-2.52,103.59-1.02,155,.39,13.56,2.72,28.26-1.78,41.2s-18.8,19.25-29.54,25.46c-31.66,18.32-71.51,40.69-105.4,53.6-11.36,4.33-19.34,8.43-31.48,4.95-27.81-7.97-106.85-59.46-129.26-79.74-14.95-13.53-10.82-26.01-11.54-44.46-2.41-62.14-2.97-125.42.08-188.05.53-2.5-3.7-1.47-4.12-3.12-2.21-8.71,10.44-8.99,16.51-9.38,44.89-2.9,95.47.34,141.09.09,29-.16,58.1-1.05,86.91-1.09,24.51-.03,49.04.11,73.55.04h0ZM1441,1720.5c.69,5.4-.5,11.96,0,17.5l117.02-25.48,3.98-52.52h-293.01c.61,16.68-1.77,33.49-1.55,50.06,25.38,5.19,51.16,9.87,76.59,15.41,11.65,2.54,28.47,8.41,39.46,9.54,1.79.18,3.67.05,5.45-.06,2.39-11.55-1.61-25.46,12.39-30.1,7.58-2.52,24.52-2.55,31.9.43,4,1.61,7.27,11.36,7.76,15.24v-.02ZM1555,1724.01c-44.36,9.46-88.86,18.74-133.45,27.04-20.65.71-39.57-7.22-59.34-11.76-31.46-7.22-63.2-13.98-95.21-18.29l-.04,4.43c51.37,13.49,102.06,41.63,156.58,38.62,35.25-1.95,95.25-21.14,127.46-36.54,1.58-.76,3.39-1.72,3.99-3.5h.01ZM1557.99,1734c-33.23,14.98-69.83,28.74-105.79,35.7-37.51,7.27-66.97,3.06-102.97-7.44-23.02-6.71-53.95-20.87-75.97-25.03-2.09-.4-4.17-.29-6.27-.24.37,17.15-.46,34.39-.04,51.55.47,18.79,1.65,38.36,4.03,56.97.37,2.89-.42,5.93.17,8.83,9.22,5.38,18.44,10.77,27.37,16.63,28.64,18.79,77.14,56.47,108.48,65.52,4.36,1.26,7.16,1.89,11.53.54,10.35-3.19,28.94-14.24,39.13-19.86,34.57-19.06,69.69-40.69,99.81-66.19-.28-38.94-1.53-78.11.51-116.98h.01ZM1559,1864c-6.94,2.68-12.35,9.04-18.27,13.23-23.02,16.32-51.33,33.18-76.06,46.94-12.84,7.14-28.07,13.19-40.37,20.63-2.44,1.48-9.92,8.55-11.7,8.12-2.13-1.28-2.53-4.58-4.35-5.95-2.11-1.59-14.03-4.8-18.11-6.62-19.01-8.48-40.87-23.84-58.68-35.32-5.25-3.39-59.03-41.73-61.47-39.02-.29,8.59-.87,13.7,5.47,20.02,19.48,19.41,67.92,49.05,92.85,63.15,7.2,4.07,31.28,17.63,38.15,17.93,7.85.34,31.66-10.53,39.88-14.25,29.55-13.34,62.21-31.32,90.31-47.69,6.96-4.05,15.74-8.15,19.21-15.79.8-1.77,3.12-8.45,3.12-9.88v-15.5h.02Z"/>
  <path class="cls-9" d="M1306,1312c-15.75-20.36-61.03-74.42-86.76-77.74-4.03-.52-7.99-.69-9.8,3.68-5.83,42.23-21.72,83.47-38.7,122.34-1.21,2.76-3.74,6.3-4.74,9.72-1.24,4.26-2.35,4.9-3,9-2.25-2.34-.66-6.61.08-9.24,3.04-10.74,6.39-23.76,10.2-34.97,3.1-9.11,11.48-23.99,11.71-33.3.04-1.43-1.49-4.88-.99-5.48,1.87-2.24,1.73,2.57,2.98,1.99,2.79-11.42,7.38-22.22,9.77-33.74,1.81-8.75,3.39-19.89,4.05-28.76.08-1.09-1.12-3.11-.8-3.48.76-.9,3.61,2.06,3.69,2.26,1.46,3.77-4,14.62-2.68,19.73,2.85.52,1.63-.7,2.24-2.2,2.67-6.56.96-13.86,5.74-19.3-8.23.08-3.57-2.98-5.42-8.56-.82-2.47-3.55-2.8-3.64-3.59-.15-1.25,1.3-2.59.61-4.32s-6.5-4.27-4.09-7.09c.19-.22,4.7-2.97,4.99-3,17.62-2.21,42.36,13.84,55.94,24.23,22.37,17.12,55.58,56.56,69.24,81.71,2.41,4.44,6.99,10.57-1.63,10.13-1.27,1.22,11.12,18.04,12.82,20.68.89,1.39,7.05,15.46,10.18,12.31-.78-4.63.82-9.11,1.05-13.45,5.75-110.43-6.48-221.52-33.88-327.2-1.26-4.85-8.79-25.9-8.2-28.7.15-.72,2.06-.65,2.1-1.2.06-.88-3.52-9.3-3.91-12.99-.08-.73.86-1.35.85-1.45,1.91.64,1.96,2.44,2.53,3.97,44.88,121.77,55.58,252.75,50.51,382.57-.29,7.53-.74,19.85-2.07,26.93-.67,3.55-4.87,4.9-7.49,2.54-10.58-20.86-19.81-41.53-33.07-60.92-3.19-4.66-7.01-8.69-10.41-13.09v-.02ZM1279.35,1263.65c-13.78-14.41-48.41-46.25-68.13-48.45-5.61-.63-4.65,5.73-3.03,7.59,2,2.29,8.6-.17,11.22.21,19.01,2.78,56.57,40.61,69.57,55.51,9.95,11.41,16.88,22.62,25.59,34.41.93,1.25,5.49,6.58,5.43,2.57-11.95-16.93-23.31-34.34-37.46-49.57-.96-1.03-2.37-1.43-3.19-2.29v.02Z"/>
  <path class="cls-20" d="M1306,1312c-2.79.63-3.87-2.08-5.76-2.74-22.7-7.89-50.56,8.78-69.54,19.94-19.4,11.4-40.86,25.45-58.35,39.15-1.56,1.22-3.21,6.98-6.35,1.65,1-3.42,3.53-6.96,4.74-9.72,16.98-38.87,32.87-80.12,38.7-122.34,1.8-4.37,5.76-4.21,9.8-3.68,25.73,3.33,71.01,57.39,86.76,77.74Z"/>
  <path class="cls-19" d="M1697.65,1737.65c-2.7,2.67-6.49,4.49-8.35,8.4-4.16,2.59-9.69-.89-7.56-5.77,1.55-3.55,16.93-17.85,20.77-22.26,17.18-19.74,30.06-38.31,40.5-62.5,1.77-4.11,6.28-21.23,9.66-22.38,2.86-.97,5.75.36,6.32,3.4.96,5.17-8.07,25.31-10.81,31.13-11.7,24.88-31,50.63-50.53,69.97h0Z"/>
  <path class="cls-5" d="M1648.86,2003.15c.39.63.37,5.33.02,5.74-.26.31-5.64,1.83-7.55,2.94-25.65,15-48.11,46.44-71.84,65.16-3.9,4.61-9.07-1.27-6.57-5.53l60.06-57.97c3.2-3.4,22.59-15.68,25.87-10.34h0Z"/>
  <path class="cls-15" d="M649,660c5.73-.76,7.92.16,14.18-2.12,9.11-3.32,18.58-8.07,27.15-11.54,9.27-3.76,15.43-9.42,23.35-14.66.74-.49,2.14-3.18,2.6-3.38,1.28-.56,3.51-.11,3.71-.3.4-.38-.39-3.62.01-4,.21-.2,2.44.27,3.72-.3.77-.34,11.64-11.21,11.98-11.98.56-1.25.06-3.42.33-3.69s2.44.23,3.69-.33c.77-.35,11.64-11.21,11.98-11.98.56-1.26.07-3.45.32-3.7.36-.36,2.66.42,3.75-.23s4.08-5.94,4.78-6.74c.65-.74,6.55-4.14,7.24-5.29s-.1-3.47.2-3.78c.36-.38,3.62.4,4,0,.24-.26-.49-4.81,2.83-5.93.93-.31,2.82.21,3.13-.11s-.21-2.21.11-3.13c1.1-3.25,5.65-2.61,5.9-2.86.27-.27-.23-2.44.33-3.69.26-.58,6.38-5.38,7.39-6.59,12.15-14.67,25.83-29.23,40.64-41.36,2.68-2.2,10.24-6.58,13.37-8.65.74-.49,2.13-3.17,2.6-3.38,1.25-.56,3.41-.07,3.68-.34.23-.23-.62-3.76,2.38-5.61.95-.59,2.51-.12,3.34-.67.75-.5,2.15-3.18,2.6-3.38,1.28-.56,3.51-.11,3.71-.3.4-.38-.39-3.62.01-4,.21-.2,2.44.27,3.72-.3.43-.19,3.69-4.7,4.59-5.38,7.57-5.79,17.52-10.93,25.37-16.65,12.79-9.31,24.72-19.31,38-28,.69-.45,2.25-3.25,2.57-3.37,1.76-.66,5.49-.04,5.75-.31.15-.16-.23-2.42.31-3.71.62-1.48,5.14-3,6.45-3.96,3.05-2.25,4.22-2.86,6.92-4.65.74-.49,2.14-3.18,2.6-3.38,1.28-.56,3.51-.11,3.71-.3.4-.38-.39-3.62.01-4,.21-.2,2.44.27,3.72-.3,1.8-.8,4.31-7.76,8.27-5.71.12,4.16-.15,8.36,0,12.52.09,2.32-.66,3.39,2,1.49,3.61,15.26,29.6,57.94,40.97,70.53,11.63,12.87,23.96,16.08,35.04,25.96,11.84,10.57,27.41,36.48,33.85,51.15,2.48,5.66,3.98,13.82,6.14,18.36.56,3.02-1.53,1.94-3.45,2-18.67.63-37.31,2.92-56.04,1.99-5.03-.25-39.77-2.84-41.51-3.99-3.25-2.14-6.25-2.69-11.51-2.99-16.96-.98-39.44-.54-55.7,4.28-3.11.92-7.31,1.47-8.79,4.71-23.66,1.16-52.28,14.24-71.33,28.17-5.98,4.37-11.45,10.68-17.19,14.81-7.84,5.63-31.65,8.46-42.69,11.31-16.61,4.29-34.1,9.46-50.55,14.45-8.31,2.52-36.97,14.26-42.74,14.26h-28c-1.77,0-6.73.82-9.5,1-2.58.17-6.06-.5-8.32.02-.8.19-.26,1.82-2.12,2.06-1.1.14-7.3.18-7.56-.08-.38-.38-.14-2.77.97-3.52,1.67-1.12,8.72.67,8.02-2.96-.42-2.19-5.77-1.27-6-1.51-.36-.36.36-3.64.01-4.02s-7.44.28-9,0c-.49-3,.73-1.61,2.43-2.03,3.89-.95,6.28.32,8.76-.17.43-.09,6.83-2,5.8-3.8.33-.04.67.04,1,0v.04Z"/>
  <path class="cls-20" d="M948.82,236.81c-1,.58-2.02.22-3.03-.06-6.62-1.86-15.65-6.84-22.84-9.21-119.47-39.46-265.36,16.12-343.93,109.99-49.11,58.68-82.07,150.91-23.05,215,24.53,26.63,73.41,48.88,109.01,34.95,4.15-1.62,8.34-6.59,12.06-3.02,5.19,4.97-1.14,7.77-5.03,10.06-33.21,19.61-87.39-2.71-114.03-26.01-54.06-47.27-52.4-118.93-23.7-179.72,61.81-130.91,243.19-215.33,382.92-173.49,4.96,1.48,32.45,10.77,33.67,14.37.58,1.7-.87,6.47-2.05,7.15h0Z"/>
  <path class="cls-6" d="M524,617c.09.31-.09.7,0,1,.68,2.23,1.31,6.62,4,6,19.96,37.87,83.35,40.42,120,36,1.03,1.8-5.37,3.71-5.8,3.8-2.48.49-4.87-.78-8.76.17-1.7.42-2.92-.97-2.43,2.03,1.56.27,8.67-.36,9,0,.35.37-.37,3.66-.01,4.02.23.23,5.58-.69,6,1.51.7,3.63-6.36,1.84-8.02,2.96-1.11.75-1.35,3.14-.97,3.52.27.27,6.47.23,7.56.08,1.85-.24,1.31-1.87,2.12-2.06,2.25-.52,5.74.15,8.32-.02-5.32,2.71-12.04,3-17.78,4.72-28.36,8.49-64.53,30.3-80.19,56.02-1.97,3.23-6.32,14.83-8.44,16.34s-12.2,2.19-15.58,3.91l1.98-4.5c-.62-1.14-1.81,1.12-1.99,0-.66-4.21-.37-8.97-1.29-13.7-1.72-8.83-4.26-17.76-5.6-26.4-4.66-29.98-9.52-59.61-8.21-90.81.04-1.01-.89-2.14-.9-3.01,0-.22,2.81-2.98,2.99-3.09,1.85-1.15,2.71.89,4.01,1.51h0Z"/>
  <path class="cls-19" d="M973,395c.07,0,.48.63,1.3.67,1,.05,3.11-1.14,3.66-.65.26.23,1.06,5,3.04,5.97-.23.07-3.99,2.43-4.05,2.67-.64,2.57.34,13.33,1.05,16.33-2.66,1.91-1.91.83-2-1.49-.15-4.16.12-8.36,0-12.52-3.97-2.05-6.47,4.91-8.27,5.71-1.28.56-3.51.1-3.72.3-.4.38.39,3.62-.01,4-.2.19-2.44-.26-3.71.3-.46.2-1.86,2.89-2.6,3.38-2.7,1.79-3.88,2.4-6.92,4.65-1.3.96-5.83,2.48-6.45,3.96-.54,1.29-.16,3.54-.31,3.71-.25.27-3.98-.36-5.75.31-.32.12-1.88,2.92-2.57,3.37-13.28,8.69-25.21,18.69-38,28-7.85,5.71-17.79,10.86-25.37,16.65-.9.69-4.16,5.19-4.59,5.38-1.28.56-3.51.1-3.72.3-.4.38.39,3.62-.01,4-.2.19-2.44-.26-3.71.3-.46.2-1.85,2.88-2.6,3.38-.83.56-2.4.09-3.34.67-2.99,1.86-2.15,5.38-2.38,5.61-.27.27-2.43-.22-3.68.34-.46.21-1.86,2.89-2.6,3.38-3.13,2.06-10.68,6.45-13.37,8.65-14.81,12.13-28.48,26.69-40.64,41.36-1,1.21-7.13,6.01-7.39,6.59-.56,1.25-.06,3.41-.33,3.69-.25.25-4.8-.39-5.9,2.86-.31.93.21,2.82-.11,3.13s-2.21-.21-3.13.11c-3.32,1.12-2.59,5.67-2.83,5.93-.38.4-3.64-.37-4,0-.3.31.47,2.68-.2,3.78s-6.6,4.55-7.24,5.29c-.69.79-3.71,6.1-4.78,6.74s-3.4-.13-3.75.23c-.24.25.24,2.44-.32,3.7-.34.77-11.21,11.64-11.98,11.98-1.25.56-3.42.06-3.69.33s.23,2.44-.33,3.69c-.35.77-11.21,11.64-11.98,11.98-1.28.56-3.51.1-3.72.3-.4.38.39,3.62-.01,4-.2.19-2.44-.26-3.71.3-.46.2-1.86,2.89-2.6,3.38-7.92,5.24-14.08,10.9-23.35,14.66-8.56,3.47-18.04,8.22-27.15,11.54-6.26,2.28-8.45,1.36-14.18,2.12,5.72-4.98,12.46-8.29,18.47-13.03,17.99-14.19,34.66-32.75,51.51-48.49,49.96-46.64,99.72-96.28,152.54-139.46,20.72-16.94,76.46-61.97,101.48-64.02v-.02Z"/>
  <path class="cls-20" d="M1032.35,439.65c7.8,7.41,23.51,14.31,34.33,13.98,2.84-.09,7.13-2.79,8.82-.65,9.63,27.51,23.12,53.61,34.29,80.38-6.74,9.2-10.09-.21-13.3-6.35-10.52-20.08-19.56-42.43-26.62-63.88-26.94,2.21-51.34-17.27-61.35-41.15-10.16-24.23-9.66-55.27-.97-79.94,1.57-4.47,8.41-23.99,14.52-14.6,2.44,3.75-1.7,8.14-3.09,12.03-11.29,31.77-13.02,75.09,13.37,100.17h0Z"/>
  <path class="cls-5" d="M1126,689c1.08,4.77,1.21,10.32,2,15l1,2c.4,2.63.69,5.35,1,8,.28,2.38-1.07,5.95,2,7,.13,2.31-.2,4.7,0,7,.72,8.13,3.16,16.04,4,24,.07.65-.06,1.34,0,2,4.14,42.35,3.2,91.14.01,133.51-.4,5.34-.47,27.98-3.25,31.23-1.75,2.05-7.69,1.35-8.61-1.42.69-9.64,3.03-19.22,3.84-28.84,5.41-63.75,1.27-145.85-12.43-208.55-2.66-12.16-6.45-24.09-9.56-35.94l6.01-1c4.34,15.36,10.45,30.34,14,46h0Z"/>
  <path class="cls-20" d="M795.37,363.33c.6-1.03,9.89-9.32,11.62-10.85,23.01-20.29,56.14-41.28,85.48-50.52,17.39-5.48,51.61-11.46,68.25-4.18,3.25,1.42,9.87,5.98,7.35,9.76-3.93,5.89-11.03-1.69-16.65-2.46-17.05-2.33-39.01,1.37-55.37,6.45-37.05,11.5-68.44,35.68-96.68,61.38-4.49-2.01-6.67-4.99-3.99-9.59h0Z"/>
  <path class="cls-20" d="M973,395c3.18-2.36,16.31-5.48,19.07-3.56,1.2.84,1.42,6.46.8,7.43-.9,1.41-9.93,1.59-11.86,2.14-1.98-.97-2.78-5.75-3.04-5.97-.56-.49-2.67.7-3.66.65-.82-.04-1.22-.68-1.3-.67v-.02Z"/>
  <path class="cls-17" d="M524,618c3.05-.65,2.95,4,4,6-2.69.62-3.32-3.77-4-6Z"/>
  <path class="cls-14" d="M1146,988c3.17-.85,2.15,3.92,1.92,5.41-3.93,25.75-15.69,53.66-26.04,77.76-22.04,51.31-52.79,103.53-100.64,138.79-16.21,11.95-43.16,26.26-63.73,28.04-4.92.43-24.98.89-28.82-.03-.76-.18-.62-1.79-1.37-1.96-14.47-3.23-23.57-5.74-36.11-13.68-1.55-.98-6.73-5.6-7.21-5.85-1.22-.63-3.71-.27-3.95-.54-.46-.5.46-3.02-.19-3.8-.29-.35-2.36-.28-3.37-1.1-5.67-4.64-9.53-10.16-13.92-15.1-3.66-4.12-9.79-8.41-10.58-13.95,53.07,7.62,101.09,7.18,145.89-24.61,31.9-22.64,63.16-46.61,88.08-76.92,8.68-10.55,22.84-28.45,28.03-40.47,3.94-1.42,2.34-2.64,4-6,.13-.27-.13-.73,0-1,1.83-.88,2.93-2.34,4-4,2.94-4.59,9.03-11.1,11-15,3.81-7.56,9.9-18.8,13-26h.01Z"/>
  <path class="cls-1" d="M898,794c1.86,2.34,8.46,12.71,9.22,15.28,5.38,18.05-22.24,28.94-35.96,31.49-8.11,1.51-18.21.05-25.29,1.71-9.37,2.2-14.68,18.54-25.09,23.92-18.75,9.69-30.67-1.4-36.93-18.85-7.8-21.76-11.68-95.73-10-120.08.5-7.25,2.9-24.25,13.96-17.87,8.22,4.74,22.28,24.11,29.52,32,2.25,2.45,5.28,4.19,7.55,6.41,3.72,3.64,6.37,9.66,11.31,13.68.72.59,2.6.05,3.37.64.9.69,4.15,5.19,4.59,5.39,1.25.56,3.41.06,3.69.33.23.23-.62,3.76,2.38,5.62.95.59,2.52.12,3.34.67s1.87,2.88,2.64,3.35c1.09.66,6.32,1.99,7.37,2.65.86.54,2.19,3.45,3.05,3.64,1.62.36,3.23-.31,5.03.33.37.13,2.18,3.5,2.97,3.67,3.85.83,6.75,1.2,10.59,2.05.76.17.6,1.78,1.37,1.97,2.51.6,5.95-.49,8.6.06.16.03,2.61,1.83,2.71,1.97v-.03Z"/>
  <path class="cls-13" d="M840,1013c-5.35-.85-12.72.45-18.48-.02-15.62-1.27-34.77-6.17-47.43-15.57-1.8-1.34-11.06-8.1-9.09-10.4,43.65-11.35,87.95-20.47,130.25-36.26,35.8-13.37,70.41-31.01,107.75-39.75-2.4,27.99-27.33,50.92-48.68,66.82-9.2,6.85-16.19,10.28-26.32,15.18-2.56.1-4.92-.89-7.46-1.04-13.13-.8-33.39-.74-45.86,2.06-.73.16-.56,1.74-1.39,1.95-11.89,3.01-19.12,6.47-28.99,12.33l-4.3,4.71h0Z"/>
  <path class="cls-14" d="M949.99,1017.01c-6.48,31.99-36.35,53.57-69.23,45.73-2.75-.66-22.1-8.86-22.76-10.24-.76-1.58,1.07-1.7,1.98-1.98,4.32-1.33,9.8-1.36,14.46-2.57,19.14-4.94,46.46-13.88,63.57-23.43,1.58-.88,11.48-8.05,11.98-7.51Z"/>
  <path class="cls-5" d="M1133,1014c-1.97,3.9-8.06,10.41-11,15-1.69.94-3.13,2.24-4,4-.13.27.13.73,0,1-3.37-.45-3.22,4.19-4,6-.96.34-1.87-.44-3.47,1.01-3.5,3.17-9.55,13.54-13.12,17.9-19.57,23.93-63.11,68.67-91.42,79.58-4.51,1.74-11.49,1.99-8.5-4.47.91-1.97,21.7-13.25,25.74-16.06,30.79-21.4,55.47-51.25,80.16-79.07l23.59-33.42c3.81-2.38,6.39,5.39,6.02,8.53h0Z"/>
  <path class="cls-14" d="M928,993c-24.5,11.86-55.65,21.41-83.64,21.94-2.99.06-3.97-1.87-4.36-1.94l4.3-4.71c9.87-5.85,17.11-9.32,28.99-12.33.82-.21.65-1.78,1.39-1.95,12.46-2.8,32.73-2.86,45.86-2.06,2.54.15,4.9,1.14,7.46,1.04h0Z"/>
  <path class="cls-3" d="M1135,1303c-12.9,1.81-24.16,10.62-36.46,15.04-70.4,25.34-133.85,23.63-204.75,2.67-6.34-1.88-16.13-6.86-21.79-7.71-1.36-.8-2.33-.82-3.31-2.26-3.61-5.26-8.42-18.25-11.17-24.76-8.71-20.61-15.89-42.01-23.52-62.98,13.37,6.99,25.24,16.96,38.74,23.76,73.48,37,163.68,34.62,236.14-3.38,35.33-18.53,61.36-43,91.12-68.38-13.41,24.2-19.53,51.56-29.23,77.27-3.97,10.52-8.97,24.22-16.87,32.13-3.84,3.84-18.41,13.75-18.9,18.6h0Z"/>
  <path class="cls-18" d="M1135,1303c-.1,1.02.7,7.25,1,8-3.18-.28-6.97,3.61-8,4-11.26,4.32-22.06,9.76-33.32,14.18-23.84,9.36-91.16,23.42-114.93,17.75s-51.38-7.1-76.75-14.43c-5.87-1.7-24.84-7.62-29-10.5-1.19-.83-5.5-6.41-5.99-7.51-.99-2.18,3.21-1.6,3.99-1.49,5.66.85,15.45,5.83,21.79,7.71,70.9,20.96,134.35,22.67,204.75-2.67,12.29-4.43,23.56-13.23,36.46-15.04h0Z"/>
  <path class="cls-13" d="M1240,1042c-2.98.1-2.49-1.48-3.07-3.43-1.15-3.86-1.52-8.44-2.62-12.37-5.5-19.53-16.46-44.74-18.3-64.2,11.23,8.77,16.94,22.06,19.71,35.79,2.81,13.96,3.92,29.98,4.29,44.21h-.01Z"/>
  <path class="cls-21" d="M736.35,707.65c36.47,34.17,25.16,102.16-9.33,133.86-58.56,53.82-164.28,35.89-171-52.03-6.15-80.45,124.47-134.17,180.33-81.83h0Z"/>
  <path class="cls-21" d="M999.65,624.35c39.85,39.26,29.91,104.25-14.33,135.47-54.44,38.41-131.7,27.05-161.03-35.6-44.61-95.31,117.39-156.96,175.36-99.86h0Z"/>
  <path class="cls-15" d="M815.99,653c.74.7-4.17,7.09-4.87,8.62-3.53,7.69-3.66,14.83-5.09,22.96-21.46-4.43-41.79,3.69-55.6,20.39-1.03.23-6.13-6.35-7.96-7.94-7.77-6.71-20.17-14.23-30.47-15.04.44-1.74,2.29-2.25,3.77-2.72,9.89-3.13,22.06-4.85,32.44-7.56,22.68-5.92,45.07-12.93,67.78-18.71h0Z"/>
  <path class="cls-18" d="M917,592c1.48-3.24,5.67-3.79,8.79-4.71,16.27-4.82,38.74-5.26,55.7-4.28,5.26.3,8.26.85,11.51,2.99l-13.73,5.72c-4.2,6.19-7.07,1.8-10.82,1.32-16.24-2.05-35.38-1.83-51.45-1.05h0Z"/>
  <path class="cls-18" d="M530,754c.46-6.08,4.89,2.3,0,2-.07-.65.1-1.37,0-2Z"/>
  <path class="cls-10" d="M529.99,767h-.98c-.5-4.16,1.48-4.16.98,0Z"/>
  <path class="cls-15" d="M1132,728c1.21,1.05,2.17,2.25,2.7,3.8,1.37,3.99,2.23,12.19,3.06,16.96.33,1.93,1.23,3.74-1.75,3.24-.84-7.96-3.28-15.87-4-24h-.01Z"/>
  <path class="cls-15" d="M1132,721c-3.07-1.05-1.72-4.62-2-7,2.49,1.6,1.86,4.55,2,7Z"/>
  <path class="cls-15" d="M1129,706l-1-2c.03.15.64-.36,1,2Z"/>
  <path class="cls-20" d="M1592.79,550.29c23.92-1.62,50.5,1.79,48.25,32.25-1.84,24.81-42.61,31.88-62.01,35.99-45.53,9.67-91.34,13.09-136.25,26.75-16.29,4.95-43.51,20.18-58.28,5.7-5.83-5.71-3.31-7.75.98-13,35.83-43.93,151.75-83.93,207.31-87.69Z"/>
  <path class="cls-20" d="M133.34,733.66c-10.77-10.71,2.83-23.09,13.69-26.14,32.87-9.23,93.51,8.92,125.93,20.02,14.56,4.98,40.92,18.08,54.56,19.44,2.53.25,17.53-1.34,16.48,3.5-.93,1.48-1.96,1.37-3.46,1.55-14.62,1.75-25.91-.71-39.99-1.08-45.65-1.2-91.59-1.4-136.91-8.09-7.87-1.16-24.72-3.67-30.29-9.21h-.01Z"/>
  <path class="cls-20" d="M1378,799.01c9.61-2.64,16.73-11.78,25.09-17.42,28.37-19.11,100.69-45.7,133.47-33.65,12.77,4.69,14.85,24.79,1.12,31.24-13.06,6.13-48.57,8.26-64.86,11.14-19.23,3.4-71.42,17.65-87.09,14.46-1.52-.31-9.33-4.02-7.73-5.77Z"/>
  <path class="cls-20" d="M336.39,943.61c1.13,1.1,3.09,1.15,2.61,3.37-12.13,5.05-21.97,15.09-31.52,23.99s-21.27,20.26-29.99,30.01c-11.89,13.31-25.61,40.88-44.11,42.89-26.99,2.93-40.43-18.07-22.89-39.89,15.74-19.57,85.48-57.06,110.29-62.71,6.93-1.58,10.45-2.67,15.61,2.34Z"/>
  <path class="cls-20" d="M418.58,1035.58c6.62-5.38,23.46-17.7,31.96-17.65,4.27.03,8.15,11.14,7.31,14.34-.34,1.28-13.44,12.38-15.88,15.2-4.53,5.23-9.1,12.29-12.78,18.22-8.39,13.52-24.34,56.02-44.19,28.81-4.45-6.1-5.12-11.77-3.05-19.05,2.73-9.61,28.05-32.9,36.63-39.87h0Z"/>
  <path class="cls-20" d="M402,540c-.03,1.33.09,2.68,0,4-.05.66.04,1.34-.01,1.99h-.98c.1-2.08-.54-4.02-1.01-5.99h2Z"/>
  <path class="cls-19" d="M399,522c-.6-10.76-.22-23.13,0-34h1c-.24,9.48.13,19.02.02,28.51-.02,1.69.64,4.44-1.02,5.49Z"/>
  <path class="cls-10" d="M400,528c.56.09,1.87-.17,2,0,.36.48.05,10.13,0,12.01h-1c.16-4.04-.6-8.01-1-12h0Z"/>
  <path class="cls-20" d="M400,488h-1c.03-1.61-.6-4.16,1-5-.06,1.66.04,3.34,0,5Z"/>
  <path class="cls-3" d="M1034,1568c-.6,4.26,3.05,1.07,4,1,1.32-.1,2.67.04,4,0-.56,3.23,1.63,1.67,3.49,1.96,14.54,2.26,28.55,2.47,43.08.06,1.88-.31,4,1.13,3.43-2.02,1.28-.13,2.69,0,4,0l2,1c.33,22.07.45,44.01,1,66v4c.07,2.66-.05,5.34,0,8l1,1c.14,10.44-.88,20.7-1,31-.09,7.33-.23,14.94,2,22,.12,4.32,1,10.1,1,13.5v20c0,5.38.73,13.53,1,19.5,1.49,32.54,4.21,65.37,6,98-2.25.44-3.59-3.56-4.37-5.13-1.61-3.23-9.43-18.46-9.63-19.87-.23-1.61.17-3.36-.24-5.23-16.76-77.22-38.92-153.42-68.36-226.67-2.32-5.78-6.99-12.72-9.4-19.1-1.8-4.76-2.16-7.99-3-12,6.51,1.85,13.28,2.68,20,3Z"/>
  <path class="cls-5" d="M1128,1315c-1.53,7.99-7.22,14.69-10.47,22.03-4.1,9.27-8.43,22.19-11.53,31.97-2.34.44-4.63.75-7,1-1.77.19-10.34.58-10.91,1.15-.41.41.2,2.42-.14,2.74s-8.18.32-7.94,4.11c-1.43.43-3.36.56-5,1-.05.01.17-.29-1,0-46.15,11.39-83,12.17-129.47,4.15-9.7-1.67-24.63-7.85-32.53-8.15v-1c-.05-.68-.44-.81-1-1-.23-.08-.67,0-1,0,.04-8.34-9.15-11.06-14-16-5.57-5.68-17.95-23.65-21.63-30.87-.6-1.17-2.72-3.12-.37-4.13,4.16,2.88,23.13,8.8,29,10.5,25.37,7.33,52.85,8.72,76.75,14.43s91.09-8.39,114.93-17.75c11.26-4.42,22.06-9.86,33.32-14.18h-.01Z"/>
  <path class="cls-11" d="M1104,1381c.29.25,2.07-.58,2.06.55-.01,1.64-1.88,4.81-2.1,7.91-2.18,30.92,1.34,63.33,1.08,94.09-.03,2.95-1.48,5.85-1.13,8.97.26,2.38,4.05,2.34,4.89,5.2-.89,4.35,1.57,12.37,1.22,15.78-.21,2.05-2.37,2.69-2.82,4.21-1.77,6.01-3.26,11.29-3.19,17.79.02,1.64,1.07,3.32.97,4.97-.16,2.45-2.58,3.86-3.01,7.02-1.01,7.33,3.74,3.84,4.91,5.66.28.44,1.09,8.77,1.18,10.31.17,3.06.55,12.56,0,14.88-.38,1.57-3.87.91-4.11,2.26-.33,1.91,2.08,4.28,2.1,6.87.03,3.88-1.91,9.79-2.08,13.99-.88,21.72-.59,46.28,0,68.09.62,23.11,2.11,47.68,1.09,70.99-.19,4.23-1.06,10.31-2.04,14.46-.27-5.97-1-14.12-1-19.5v-20c0-3.4-.88-9.18-1-13.5-.17-6.16.21-12.38,0-18.55-.06-1.93,1.02-4.01-2-3.45.12-10.3,1.14-20.56,1-31,0-.7-1-.93-1-1-.05-2.66.07-5.34,0-8-.03-1.01.03-2.87,0-4-.55-21.99-.67-43.93-1-66v-1c-.04-2.41.03-5.29,0-8-.2-16.28-3.86-45.62-2-60,.05-.36,3.43-1.06,1.79-6.33-.37-1.2-1.75-1.55-1.79-1.67-.52-1.57,1-5.26,1.04-7.46.45-22.72-.52-45.41.97-68.03.58-8.76,1.38-28.26,4.99-35.51.16-.32.76-.62,1-1h-.02Z"/>
  <path class="cls-18" d="M1106,1369c-.04.11,1.18.83.85,2.21-.53,2.23-6.12,6.97-2.85,9.79-.24.38-.84.68-1,1,.95-3.7-6.03-1.22-7.39-.89-11.45,2.82-23.2,6.66-34.61,9.89-6.65.02-13.91,1.75-20.46,2.04-23.79,1.05-48.14-.95-72.09-1.09-8.84-.05-16.19.56-25.45-.95-7.01-1.15-16.31-3.72-23-6-.88-.3-2.83.48-4.04-.44-1.64-1.25-.9-8.72-6.96-8.58-.3-1.61,1.96-1.03,2.99-.99,7.89.3,22.83,6.48,32.53,8.15,46.48,8.02,83.33,7.24,129.47-4.15h1c1.64-.44,3.57-.57,5-1,6.74-2.03,13.22-3.69,19-8,2.37-.25,4.66-.56,7-1h.01Z"/>
  <path class="cls-13" d="M1095,1828c-4.82,1.67-9.99.83-15,1-13.49-59.97-25.64-121.63-47.25-179.25-7.27-19.37-16.19-42.03-24.75-60.75,2.03-2.26,6.62.88,8.59.92.88.02-.3-2.38,1.4-1.91l3.01,3.99c-1.11-4.57-6.17-10.13-4-14.99,2.41,6.38,7.08,13.32,9.4,19.1,29.44,73.25,51.6,149.45,68.36,226.67.41,1.87.01,3.62.24,5.23h0Z"/>
  <path class="cls-20" d="M1115,2148c.5,11.29,4,24.37,3.06,35.56-.15,1.75.2,3.29-1.57,4.44-2.42.48-1.42-1.94-1.48-3.48-.42-10.01-.73-19.97-1.01-30-.06-2.15-2.93-7.26,1-6.51h0Z"/>
  <path class="cls-11" d="M878.38,2006.4c-11.97,11.93-24.13,26.76-36.85,37.62-2.24,1.91-5.15,4.65-7.97,5.03-13.42,1.8-36-1.73-49.57-4.55-37.36-7.76-74.12-23.81-111.78-30.71-16.28-38.95-28.51-79.7-38.2-120.8l105.45,8.04c18.92.02,38.24-.26,56.75-4.33,20.89-4.59,48.5-21.53,67.67-32.33,17.25-9.72,34.36-19.66,49.63-32.35,1.05.7,1.24,1.33,1.47,2.5,3,15.5,5.12,31.2,8.32,46.68,4.37,21.12,9.76,42.03,13.74,63.24-16.73,23.2-38.52,41.9-58.65,61.95h-.01Z"/>
  <path class="cls-8" d="M905,1759l4.59,51.03-105.12,49.95c-2.62.59-5.21-11.94-6.29-14.65-1.48-3.72-4.86-12.95-8.88-14.12-8.28-2.41-33.54,4.38-38.86,11.73-4.25,5.88-1.45,15.78.57,22.06l-123.11,3.41-11.9-52.4,289-57h0Z"/>
  <path class="cls-11" d="M940.99,1958c1.08,4.85,1.84,9.79,2.85,14.66,1.29,6.21,4.25,5.25-.87,11.81-12.36,15.85-31.77,34.4-46.45,48.57-17.94,17.32-37,33.85-56.24,49.76l-3.66.15c-41.23-8.54-83.46-16.26-123.82-28.24-16.21-4.81-40.41-9.25-38.78-30.71,29.23,5.67,57.19,16.98,85.98,24.51,26.14,6.83,52.04,11.72,79.3,10.27,10.45-6.99,17.97-17.51,26.69-26.31,18.4-18.58,37.75-36.34,56.05-54.95,5.14-5.23,10.7-13.21,15.94-18.06.98-.91,1.42-1.83,3.02-1.47h-.01Z"/>
  <path class="cls-11" d="M908,1823.01c1.25,1.14-1.61,2.69-2.27,3.22-21.21,16.82-81.31,53.02-106.52,59.48-44.82,11.48-99.99,2.68-145.71-1.7-5.93-.57-14.34,0-20-1-3.03-.53-3.23-3.87-1.96-4.01,6.49-.13,13.54-1.72,19.93-2.04,37.3-1.85,73.93-2.16,111.05.03,25.34,1.49,45.39-8.47,66.81-20.17l78.67-33.82h0Z"/>
  <path class="cls-11" d="M910,1373c.33,0,.77-.08,1,0l1,1v1c-1.03-.04-3.29-.62-2.99.99,6.05-.15,5.32,7.33,6.96,8.58,1.2.92,3.16.14,4.04.44.24,3.08,2.89,6.33,4.58,8.92,20.57,31.55,39.11,61.87,55.42,96.08,1.44,3.02,2.64,6.1,4,9,8.82,18.89,17.15,37.97,24.95,57.33l3.05,1.67c-.33,2.57,1.56,4.88,2,7,.84,4.01,1.2,7.24,3,12-2.17,4.86,2.89,10.42,4,14.99l-3.01-3.99c-1.7-.47-.52,1.93-1.4,1.91-1.97-.04-6.55-3.18-8.59-.92-14.58-31.9-32.22-64.9-50.58-94.92-14.22-23.23-45.25-61.51-48.33-87.67-1.15-9.72,1.3-21.85-1.08-31.42-.24-2.49-.07-1.97,2-2h-.02Z"/>
  <path class="cls-5" d="M1056.14,1859.15c.6-.95,6.28-1.91,7.42-.21.27.4,1.31,8.13,1.42,9.57.52,6.81-.38,14.11.02,20.98,1.54,26.3,3.96,52.71,6.09,79.02,1.32,5.23-8.12,8.04-9.1,2.99l-5.86-112.35h0Z"/>
  <path class="cls-10" d="M793,1323l-.03-15.53c2.17-9.15,4.76-25.83,17.43-24.4,5.45.62,11.04,8.58,11.65,13.38.23,1.79.52,15.01-.04,15.55-.32.3-3.93-.32-5.32.01-.76.18-.61,1.79-1.36,1.96-1.53.34-11.33-1.04-8.32,3.02-1.71.67-13.34,5.48-14,6h-.01Z"/>
  <path class="cls-10" d="M848.43,1346.63c.26.43,1.6.33,1.6.87-.02,6.81-7.42-3.09-6.02-4.49,2.18-2.19,3.84,2.65,4.42,3.62h0Z"/>
  <path class="cls-8" d="M1557.99,1734c-2.05,38.87-.8,78.04-.51,116.98-30.12,25.5-65.24,47.13-99.81,66.19-10.19,5.62-28.78,16.67-39.13,19.86-4.38,1.35-7.17.72-11.53-.54-31.34-9.06-79.84-46.73-108.48-65.52-8.93-5.86-18.15-11.25-27.37-16.63-.59-2.9.2-5.94-.17-8.83-2.38-18.61-3.56-38.19-4.03-56.97-.43-17.16.4-34.39.04-51.55,2.1-.05,4.18-.15,6.27.24,22.01,4.16,52.95,18.32,75.97,25.03,36,10.5,65.46,14.71,102.97,7.44,35.96-6.96,72.56-20.72,105.79-35.7h0Z"/>
  <path class="cls-11" d="M1441,1720.5c-.49-3.88-3.76-13.62-7.76-15.24-7.38-2.98-24.32-2.94-31.9-.43-14,4.65-10,18.55-12.39,30.1-1.78.11-3.67.25-5.45.06-10.99-1.13-27.81-7-39.46-9.54-25.43-5.54-51.21-10.22-76.59-15.41-.22-16.57,2.16-33.37,1.55-50.06h293.01l-3.98,52.53-117.02,25.48c-.5-5.54.69-12.1,0-17.5h-.01Z"/>
  <path class="cls-11" d="M1559,1864v15.5c0,1.43-2.32,8.11-3.12,9.88-3.47,7.64-12.25,11.74-19.21,15.79-28.11,16.37-60.76,34.34-90.31,47.69-8.23,3.71-32.04,14.59-39.88,14.25-6.86-.3-30.95-13.86-38.15-17.93-24.93-14.1-73.37-43.74-92.85-63.15-6.34-6.32-5.76-11.43-5.47-20.02,2.44-2.71,56.22,35.64,61.47,39.02,17.81,11.48,39.66,26.84,58.68,35.32,4.08,1.82,16,5.03,18.11,6.62,1.82,1.37,2.21,4.67,4.35,5.95,1.79.43,9.26-6.64,11.7-8.12,12.29-7.45,27.53-13.49,40.37-20.63,24.73-13.76,53.04-30.62,76.06-46.94,5.91-4.19,11.33-10.56,18.27-13.23h-.02Z"/>
  <path class="cls-11" d="M1555,1724.01c-.6,1.78-2.41,2.74-3.99,3.5-32.21,15.39-92.21,34.59-127.46,36.54-54.53,3.01-105.22-25.13-156.58-38.62l.04-4.43c32.01,4.31,63.75,11.07,95.21,18.29,19.77,4.54,38.68,12.46,59.34,11.76,44.59-8.29,89.09-17.57,133.45-27.04h-.01Z"/>
  <path class="cls-19" d="M1279.35,1263.65c.82.85,2.23,1.25,3.19,2.29,14.15,15.23,25.51,32.64,37.46,49.57.06,4.01-4.5-1.32-5.43-2.57-8.71-11.79-15.63-23.01-25.59-34.41-13-14.9-50.55-52.73-69.57-55.51-2.61-.38-9.22,2.08-11.22-.21-1.62-1.86-2.59-8.22,3.03-7.59,19.72,2.2,54.35,34.04,68.13,48.45v-.02Z"/>
  <path class="cls-7" d="M993,586c1.74,1.15,36.48,3.74,41.51,3.99,18.72.93,37.37-1.37,56.04-1.99,1.93-.06,4.01,1.02,3.45-2,2.5,5.25,6.93,1.93,11.49,1.92,5.12,0,8.52,2.04,8.57,7.58.08,8.67-7.95,4.1-13.06,5.51-.73-.97-2.51-1.55-3.7-1.77-12.68-.05-25.5,1.02-38.18,1.89l-2.17,5.33-32.46,23.54c-2.09,4.19,5.46,17.68,6.99,23.03,22.75,79.78-46.47,146.46-123.99,140.98-2.8-.2-6.9-.74-9.49,0-.1-.13-2.55-1.93-2.71-1.97-2.65-.55-6.09.55-8.6-.06-.76-.18-.6-1.8-1.37-1.97-3.84-.84-6.74-1.22-10.59-2.05-.79-.17-2.6-3.54-2.97-3.67-1.8-.64-3.41.02-5.03-.33-.85-.19-2.19-3.1-3.05-3.64-1.05-.65-6.28-1.99-7.37-2.65-.77-.46-1.82-2.79-2.64-3.35s-2.4-.09-3.34-.67c-2.99-1.86-2.15-5.39-2.38-5.62-.27-.27-2.44.23-3.69-.33-.44-.2-3.68-4.7-4.59-5.39-.77-.59-2.65-.06-3.37-.64-4.95-4.02-7.59-10.04-11.31-13.68-4.07-7.33-9.22-14.16-12.48-22.02-1.86-4.49-7.56-26.41-8.77-27.74-2.76-3.01-16.86-2.71-21.01-2.01-3.48.59-13.39,6.58-15.76,9.24-10.84,12.16-1.13,26.72.9,40.14,7.38,48.83-12.69,95.23-55.21,120.55-48.65,28.98-109.73,22.86-147.67-20.17-3.61-8.79-10.78-15.48-13.01-25.32-.1-.46-3.87-6.9-3.97-7.36-.32-1.43.28-3.11-.04-4.6-.14-.66-1.34-.74-1.57-1.15-2.83-5.06-2.36-1.85-5.62-3.65-9.66-5.34-13.4-8.57-18.62-18.53-1.26-2.4-1.9-1.31-4.17-1.39.32-4.78,1.52-7.54,2-12,3.14,1.06,2.08-5.08,2-8,0-.33.01-.67,0-1,.82-1.76,2.03-4.29,4.41-4.08,1.04.09.99,3.91,3.58,3.07.8-2.17.24-3.87,0-5.99,4.89.3.46-8.08,0-2-.11-.72-.73-2.69-1-4,1.69-2.16,1.26-6.85.92-9.42-3.85-29.23-12.51-57.8-13.96-88.04-.71-14.78-.45-30.07,2.06-44.54,1.01.15,3.52-.31,3.91.06.33.31,1.62,7.4,2.07,8.94-1.3-.61-2.16-2.65-4.01-1.51-.18.11-3,2.88-2.99,3.09.01.86.94,2,.9,3.01-1.32,31.19,3.55,60.83,8.21,90.81,1.34,8.64,3.88,17.57,5.6,26.4.92,4.74.63,9.49,1.29,13.7.18,1.11,1.36-1.15,1.99,0l-1.98,4.5c3.38-1.72,13.43-2.39,15.58-3.91s6.48-13.11,8.44-16.34c15.66-25.73,51.83-47.54,80.19-56.02,5.75-1.72,12.46-2,17.78-4.72,2.77-.18,7.73-1,9.5-1h28c5.77,0,34.43-11.74,42.74-14.26,16.45-4.99,33.94-10.16,50.55-14.45,11.04-2.85,34.85-5.68,42.69-11.31,5.74-4.13,11.21-10.44,17.19-14.81,19.05-13.93,47.68-27.01,71.33-28.17,16.07-.79,35.21-1,51.45,1.05,3.75.47,6.61,4.86,10.82-1.32l13.73-5.72h.02ZM999.65,624.35c-57.97-57.1-219.97,4.55-175.36,99.86,29.33,62.66,106.59,74.01,161.03,35.6,44.24-31.21,54.19-96.21,14.33-135.47h0ZM815.99,653c-22.71,5.78-45.1,12.79-67.78,18.71-10.38,2.71-22.55,4.43-32.44,7.56-1.49.47-3.34.98-3.77,2.72,10.3.81,22.7,8.33,30.47,15.04,1.83,1.58,6.93,8.17,7.96,7.94,13.81-16.7,34.14-24.82,55.6-20.39,1.43-8.13,1.57-15.26,5.09-22.96.7-1.53,5.61-7.91,4.87-8.62h0ZM736.35,707.65c-55.86-52.33-186.48,1.39-180.33,81.83,6.72,87.92,112.44,105.85,171,52.03,34.49-31.7,45.81-99.69,9.33-133.86ZM529.99,767c.5-4.16-1.48-4.16-.98,0h.98Z"/>
  <path class="cls-15" d="M1118,1033c.87-1.76,2.31-3.06,4-4-1.07,1.66-2.17,3.12-4,4Z"/>
  <path class="cls-18" d="M1055,1562c.11.48.53.93,1,1,1.46.22,3.41-.02,5,0,2.66.04,5.34-.01,8,0,1,0,2,.01,3,0,6-.09,10.28-.33,16-1,3.31-.39,6.67-.83,10-1,.03,2.71-.04,5.59,0,8h-2c-1.31,0-2.72-.13-4,0-16.68,1.64-33.17-.57-50,0-1.33.04-2.68-.1-4,0-1.15-1.26-2.53-.93-4-1-6.72-.32-13.49-1.15-20-3-.44-2.12-2.33-4.43-2-7,10.13,1.03,20.35,3.29,30.51,3.99,3.99.27,8.76-.53,12.49,0h0Z"/>
  <path class="cls-11" d="M1092,1569c.57,3.15-1.56,1.71-3.43,2.02-14.53,2.42-28.54,2.21-43.08-.06-1.86-.29-4.06,1.27-3.49-1.96,16.83-.57,33.32,1.64,50,0Z"/>
  <path class="cls-20" d="M1099,1680c3.02-.56,1.94,1.53,2,3.45.21,6.17-.17,12.39,0,18.55-2.23-7.06-2.09-14.67-2-22Z"/>
  <path class="cls-11" d="M1038,1569c-.95.07-4.6,3.26-4-1,1.47.07,2.85-.26,4,1Z"/>
  <path class="cls-20" d="M1099,1640v-4c.03,1.13-.03,2.99,0,4Z"/>
  <path class="cls-11" d="M1098,1569v1l-2-1h2Z"/>
  <path class="cls-20" d="M1100,1649l-1-1c0,.07.99.3,1,1Z"/>
  <path class="cls-10" d="M1099,1370c-5.78,4.31-12.26,5.97-19,8-.24-3.8,7.59-3.78,7.94-4.11s-.27-2.33.14-2.74c.57-.57,9.14-.96,10.91-1.15h.01Z"/>
  <path class="cls-10" d="M1075,1379h-1c1.17-.29.95.01,1,0Z"/>
  <path class="cls-20" d="M912,1374l-1-1c.56.19.95.32,1,1Z"/>
  <path class="cls-3" d="M1061,1391c11.41-3.23,23.16-7.07,34.61-9.89,1.36-.33,8.34-2.81,7.39.89-3.61,7.25-4.41,26.75-4.99,35.51-1.49,22.62-.51,45.31-.97,68.03-.04,2.2-1.56,5.89-1.04,7.46-12.46.94-25.04,3.27-37.51,3.99-18.32,1.05-38.63.48-56.85-2.13-7.27-1.04-14.6-2.8-21.64-4.86-16.31-34.21-34.85-64.53-55.42-96.08-1.69-2.59-4.34-5.84-4.58-8.92,6.69,2.28,15.99,4.85,23,6,6.29,3.11,15,5.12,22,5,1.33-.02,2.67-.04,4,0,1.45,1.48,3.55,1.48,5,0,22.78,1.41,46.17,2.24,69,0,8.91-.87,10.97-3.01,18-5Z"/>
  <path class="cls-3" d="M1096,1501c-1.86,14.38,1.8,43.72,2,60-3.33.17-6.69.61-10,1-5.09.56-11.48-1.26-16,1-1,.01-2,0-3,0-1.54-1.67-6.42-1.68-8,0-1.59-.02-3.54.22-5,0-.11-.48-.53-.93-1-1-3.73-.54-8.5.26-12.49,0-10.16-.7-20.38-2.96-30.51-3.99l-3.05-1.67c-7.8-19.36-16.12-38.44-24.95-57.33,1.74.05,3.18,1.43,4.74,1.75,29.58,6.12,61.68,9.57,91.47,3.95,5.3-1,10.49-2.77,15.79-3.71Z"/>
  <path class="cls-18" d="M1096,1493c.04.12,1.42.46,1.79,1.67,1.64,5.27-1.74,5.97-1.79,6.33-5.31.93-10.49,2.71-15.79,3.71-29.79,5.62-61.89,2.17-91.47-3.95-1.56-.32-3-1.7-4.74-1.75-1.36-2.9-2.56-5.98-4-9,7.04,2.06,14.36,3.82,21.64,4.86,18.22,2.61,38.54,3.18,56.85,2.13,12.47-.72,25.05-3.05,37.51-3.99h0Z"/>
  <path class="cls-13" d="M1061,1391c-7.03,1.99-9.09,4.13-18,5,.56-3.03-1.53-1.92-3.45-2-21.75-.86-49.22-.73-71.09,0-1.93.06-4.01-1.02-3.45,2-7,.12-15.71-1.89-22-5,9.26,1.52,16.61.9,25.45.95,23.95.13,48.3,2.13,72.09,1.09,6.55-.29,13.81-2.02,20.46-2.04h-.01Z"/>
  <path class="cls-11" d="M1088,1562c-5.72.67-10,.91-16,1,4.52-2.26,10.91-.44,16-1Z"/>
  <path class="cls-11" d="M1069,1563c-2.66-.01-5.34.04-8,0,1.58-1.68,6.46-1.67,8,0Z"/>
  <path class="cls-11" d="M1056,1563c-.47-.07-.89-.52-1-1,.47.07.89.52,1,1Z"/>
  <path class="cls-18" d="M965,1396c-.56-3.02,1.53-1.94,3.45-2,21.87-.73,49.34-.86,71.09,0,1.93.08,4.01-1.03,3.45,2-22.83,2.24-46.22,1.41-69,0-2.32-.14-3.68.04-5,0s-2.67-.02-4,0h.01Z"/>
  <path class="cls-13" d="M974,1396c-1.45,1.48-3.55,1.48-5,0,1.32.04,2.68-.14,5,0Z"/>
</svg>