<svg xmlns="http://www.w3.org/2000/svg" viewBox="0 0 64 64"><defs><style>.cls-1{fill:#00bebd;}.cls-2{fill:#00aaa8;}.cls-3{fill:#50d9d7;}.cls-4{fill:#c8c8c8;}.cls-5{fill:#fff;}.cls-6{fill:#f3f3f3;}.cls-7{fill:#d9d9d9;}.cls-8{fill:#ffac00;}.cls-9{fill:#ea9807;}.cls-10{fill:#93e6e5;}</style></defs><title>Editing</title><g id="Editing"><rect class="cls-1" y="3" width="64" height="48" rx="3"/><polygon class="cls-2" points="39.81 61.05 23.81 60.95 24.88 50.95 38.88 51.05 39.81 61.05"/><path class="cls-3" d="M46.81,62.1l-30-.2a1,1,0,0,1,0-2l30,.2A1,1,0,0,1,46.81,62.1Z"/><path class="cls-4" d="M3,5H61a1,1,0,0,1,1,1V9a0,0,0,0,1,0,0H2A0,0,0,0,1,2,9V6A1,1,0,0,1,3,5Z"/><rect class="cls-5" x="2" y="9" width="60" height="36"/><rect class="cls-6" x="2" y="9" width="10" height="26"/><rect class="cls-6" x="50" y="9" width="12" height="36"/><rect class="cls-4" x="4" y="11" width="3" height="3"/><rect class="cls-4" x="7" y="14" width="3" height="3"/><rect class="cls-7" x="7" y="11" width="3" height="3"/><rect class="cls-7" x="4" y="14" width="3" height="3"/><rect class="cls-4" x="4" y="17" width="3" height="3"/><rect class="cls-4" x="7" y="20" width="3" height="3"/><rect class="cls-7" x="7" y="17" width="3" height="3"/><rect class="cls-7" x="4" y="20" width="3" height="3"/><rect class="cls-8" x="6" y="27" width="4" height="4"/><rect class="cls-1" x="4" y="25" width="4" height="4"/><rect class="cls-7" x="50" y="30" width="12" height="4"/><rect class="cls-6" x="50" y="32" width="5" height="2"/><rect class="cls-7" x="50" y="9" width="12" height="4"/><rect class="cls-6" x="50" y="11" width="5" height="2"/><rect class="cls-3" x="54" y="17" width="4" height="4"/><rect class="cls-8" x="52" y="15" width="4" height="4"/><rect class="cls-3" x="52" y="23" width="8" height="2"/><rect class="cls-3" x="52" y="36" width="8" height="2"/><path class="cls-8" d="M32,33a9,9,0,1,1,7.06-14.57A9,9,0,0,1,32,33Z"/><rect class="cls-3" x="52" y="40" width="8" height="2"/><path class="cls-9" d="M39.06,18.43c-1,.57-.84.52-7.64,7.33a2,2,0,0,1-2.83,0l-.85-.85A6,6,0,0,0,23,23.18a8.83,8.83,0,0,0,.54,4c1,0,1.54.78,2.18,1.42a6,6,0,0,0,8.48,0c6.68-6.69,6.39-6.42,6.55-6.52A9,9,0,0,0,39.06,18.43Z"/><path class="cls-3" d="M2,45,20.67,26.33a4,4,0,0,1,5.66,0l.84.84a4,4,0,0,0,5.66,0l6.34-6.34a4,4,0,0,1,5.66,0l5.26,5.26V45H2"/><path class="cls-10" d="M40,33h6a2,2,0,0,1,2,2V45a0,0,0,0,1,0,0H38a0,0,0,0,1,0,0V35A2,2,0,0,1,40,33Z"/><path class="cls-1" d="M39,40H33a1,1,0,0,1,0-2h6A1,1,0,0,1,39,40Z"/><rect class="cls-6" x="14" y="11" width="10" height="2"/><rect class="cls-6" x="14" y="15" width="6" height="2"/><polygon class="cls-2" points="35.05 24 40 26.12 37.88 26.83 37.17 28.95 35.05 24"/></g></svg>